<svg xmlns="http://www.w3.org/2000/svg" viewBox="0 0 500 500"><g id="freepik--background-complete--inject-83"><path d="M79.33,305.64c4.31,4.25,8.8,8.49,14.52,10.72a22.35,22.35,0,0,0,16.48-.37c11.08-4.59,16.67-16.85,14.54-28.39A30.07,30.07,0,0,0,115.39,271c-2.38-2.15-5.92,1.37-3.53,3.54,7.26,6.56,10.58,16.69,7,26-3.32,8.69-13,14.21-22.14,11.48-5.55-1.67-9.84-6-13.86-10-2.29-2.27-5.83,1.27-3.54,3.53Z" style="fill:#e0e0e0"></path><path d="M125.35,245.64c-1.6-5.3-6.14-10-11.66-10.37-5.76-.38-12.23,3.18-16.36,7.22-7,6.89-15.57,19.19-22.67,26-8.73,9.16-12.24,11.22-21.58,18.18a25.4,25.4,0,0,0-8.71,11c-1.82,4.51-2.53,12.34.62,16,4,4.74,11.26,4.87,17.4,3.88a78.47,78.47,0,0,0,39.43-18.57,75.83,75.83,0,0,0,22.91-37C126.15,256.67,127,250.94,125.35,245.64Z" style="fill:#e0e0e0"></path><path d="M94.1,266.64c-1-2.23-4.12-2.22-6.56-2.54-3.69-.48-6-2.05-7.15-5.57-.59-1.73-.4-4.66-.17-7.68a24.94,24.94,0,0,0-2.59-16.16,25.43,25.43,0,0,0-25.74-12.31l.06,0c-10.71,1-18.49,8.14-20.77,18.65a26,26,0,0,0,12.36,27.45,24.32,24.32,0,0,0,11.11,3,15.53,15.53,0,0,0,1.69,0,34.24,34.24,0,0,0,4.13-.45,15.36,15.36,0,0,1,5.32.14c2.58.86,5,2.8,5.58,5.45.71,3-.82,6.81,1.42,9,1.62,1.57,4.27,1.19,6.39.41A24.6,24.6,0,0,0,94,270.31,5.28,5.28,0,0,0,94.1,266.64Z" style="fill:#ebebeb"></path><path d="M85,264.74a1.43,1.43,0,0,1,.24-.2L86,264,88.8,262c1.24-.87,2.78-1.93,4.6-3.1a49.6,49.6,0,0,1,6.45-3.58,12.36,12.36,0,0,1,4.16-1.14,8.3,8.3,0,0,1,2.32.12,4.11,4.11,0,0,1,2.15,1.18,6.34,6.34,0,0,1,1.2,4.85,36,36,0,0,1-1,5.21,46.57,46.57,0,0,1-11.38,20.34,58.79,58.79,0,0,1-19.22,13.31,35.92,35.92,0,0,1-5,1.86,8.19,8.19,0,0,1-5-.07,5.3,5.3,0,0,1-2-1.34A4.78,4.78,0,0,1,65,297.53a9.58,9.58,0,0,1,0-4.33,34.87,34.87,0,0,1,2.48-6.94,54.44,54.44,0,0,1,2.56-4.94,27.74,27.74,0,0,1,2-2.92,9.08,9.08,0,0,1,.58-.71c.14-.15.21-.23.22-.22s-.26.33-.72,1a33.72,33.72,0,0,0-1.85,3c-.74,1.33-1.6,3-2.48,5a35.92,35.92,0,0,0-2.38,6.89,9.37,9.37,0,0,0,0,4.15,4.49,4.49,0,0,0,2.92,3.1,7.7,7.7,0,0,0,4.75,0,37.12,37.12,0,0,0,4.88-1.86,58.88,58.88,0,0,0,19-13.23,46.51,46.51,0,0,0,11.29-20.1,35.86,35.86,0,0,0,1-5.12,5.93,5.93,0,0,0-1.06-4.53,5,5,0,0,0-4.13-1.19,12,12,0,0,0-4,1.08,51,51,0,0,0-6.43,3.49c-1.84,1.14-3.39,2.17-4.65,3l-2.9,2-.77.5A1.18,1.18,0,0,1,85,264.74Z" style="fill:#f5f5f5"></path><path d="M56.59,259.89c-1.08-2.21-2.94-3.92-4.55-5.78s-3-4.12-3-6.58c.12-3.77,3.68-6.65,4.28-10.38a6.9,6.9,0,0,0-8.82-7.68c-6,1.34-9.54,7.51-10.47,11.32a24.16,24.16,0,0,0,6.68,21.94,15.25,15.25,0,0,0,11.11,4.13c2.18-.15,4.61-1.13,5.26-3.22A5.2,5.2,0,0,0,56.59,259.89Z" style="fill:#f5f5f5"></path><path d="M117.85,236.39s.1.05.27.18.45.31.76.6a14.12,14.12,0,0,1,2.43,2.76,19.85,19.85,0,0,1,3,13c-.52,5.77-3.3,12.15-6.86,18.79a93.57,93.57,0,0,1-14.27,20,72.76,72.76,0,0,1-19.52,14.85,62.89,62.89,0,0,1-19,6.25,53.7,53.7,0,0,1-13.51.45L49,313l-1.54-.26-.94-.18-.32-.07a1.62,1.62,0,0,1,.33,0l.95.12,1.54.22,2.11.18a55.55,55.55,0,0,0,13.43-.61,63.71,63.71,0,0,0,18.87-6.32,72.91,72.91,0,0,0,19.36-14.77A94.15,94.15,0,0,0,117,271.52c3.57-6.6,6.36-12.92,6.91-18.6a19.77,19.77,0,0,0-2.75-12.87A16.56,16.56,0,0,0,117.85,236.39Z" style="fill:#f5f5f5"></path><path d="M121.56,271.39a3.77,3.77,0,0,1-.21.59l-.7,1.65c-.58,1.44-1.57,3.46-2.87,5.93a71.14,71.14,0,0,1-13.11,17.27,73.7,73.7,0,0,1-9.31,7.54,82.08,82.08,0,0,1-8.42,5c-1.22.67-2.38,1.17-3.38,1.64s-1.87.85-2.59,1.14l-1.66.67a2.33,2.33,0,0,1-.6.2,3.11,3.11,0,0,1,.56-.3l1.62-.75c.7-.32,1.57-.72,2.55-1.22s2.12-1,3.33-1.7a89.59,89.59,0,0,0,8.32-5,78.16,78.16,0,0,0,9.22-7.52,74.83,74.83,0,0,0,13.15-17.08c1.33-2.43,2.37-4.42,3-5.84l.78-1.6A2.16,2.16,0,0,1,121.56,271.39Z" style="fill:#f5f5f5"></path><path d="M91.36,266.89a3.34,3.34,0,0,1,.16,1.08,9.91,9.91,0,0,1-.35,3,13.29,13.29,0,0,1-1.85,4,18.77,18.77,0,0,1-3.7,4A37.08,37.08,0,0,1,81.18,282a11.64,11.64,0,0,1-4.05,1.79,4.37,4.37,0,0,1-3-.5c-.61-.38-.81-.75-.79-.76s.29.28.89.59a4.4,4.4,0,0,0,2.79.31,11.72,11.72,0,0,0,3.87-1.84,41.13,41.13,0,0,0,4.36-3.06,19.11,19.11,0,0,0,3.63-3.84,13.69,13.69,0,0,0,1.9-3.85A14.87,14.87,0,0,0,91.36,266.89Z" style="fill:#e0e0e0"></path><path d="M73.83,257.45a28.32,28.32,0,0,0,2.2-5.9,22.05,22.05,0,0,0,.47-6.76A20.31,20.31,0,0,0,69,230.47,22,22,0,0,0,63.12,227a28.25,28.25,0,0,0-6.1-1.52,1.26,1.26,0,0,1,.45,0,10.72,10.72,0,0,1,1.26.1,19,19,0,0,1,4.52,1.1,21.37,21.37,0,0,1,6,3.41A20.36,20.36,0,0,1,77,244.75a21.63,21.63,0,0,1-.59,6.89A19.69,19.69,0,0,1,74.73,256a11.87,11.87,0,0,1-.64,1.09A1.49,1.49,0,0,1,73.83,257.45Z" style="fill:#e0e0e0"></path><rect x="321.15" y="126.44" width="95" height="94.34" style="fill:#ebebeb"></rect><rect x="362.63" y="126.44" width="95" height="94.34" style="fill:#f5f5f5"></rect><path d="M390.18,174.84c0-12.13,9.32-20.81,21.86-20.81,6.95,0,12.76,2.53,16.56,7.13l-6,5.52A13,13,0,0,0,412.5,162c-7.54,0-12.88,5.29-12.88,12.88s5.34,12.88,12.88,12.88A12.82,12.82,0,0,0,422.62,183l6,5.52c-3.8,4.66-9.61,7.19-16.62,7.19C399.5,195.66,390.18,187,390.18,174.84Z" style="fill:#fff"></path><path d="M362.21,190c.14.19-8.94,7.24-20.28,15.74S321.28,221,321.15,220.78s8.94-7.24,20.28-15.75S362.07,189.78,362.21,190Z" style="fill:#e0e0e0"></path><path d="M362.21,162.8c.14.19-8.94,7.24-20.28,15.75s-20.65,15.25-20.78,15.07,8.94-7.23,20.28-15.74S362.07,162.62,362.21,162.8Z" style="fill:#e0e0e0"></path><path d="M362.21,135.65c.14.18-8.94,7.23-20.28,15.74s-20.65,15.26-20.78,15.07,8.94-7.23,20.28-15.74S362.07,135.46,362.21,135.65Z" style="fill:#e0e0e0"></path><path d="M338.28,126.44c.14.19-3.58,3.22-8.31,6.77s-8.69,6.28-8.82,6.09,3.58-3.21,8.31-6.76S338.14,126.26,338.28,126.44Z" style="fill:#e0e0e0"></path><rect x="244.42" y="215.78" width="95" height="94.34" style="fill:#ebebeb"></rect><rect x="285.9" y="215.78" width="95" height="94.34" style="fill:#f5f5f5"></rect><path d="M285.48,279.3c.14.18-8.94,7.23-20.28,15.74s-20.64,15.26-20.78,15.07,8.94-7.23,20.28-15.74S285.34,279.11,285.48,279.3Z" style="fill:#e0e0e0"></path><path d="M285.48,252.14c.14.18-8.94,7.23-20.28,15.74S244.56,283.14,244.42,283s8.94-7.23,20.28-15.74S285.34,252,285.48,252.14Z" style="fill:#e0e0e0"></path><path d="M285.48,225c.14.18-8.94,7.23-20.28,15.74S244.56,256,244.42,255.79s8.94-7.23,20.28-15.74S285.34,224.79,285.48,225Z" style="fill:#e0e0e0"></path><path d="M261.55,215.78c.14.18-3.58,3.21-8.31,6.76s-8.68,6.28-8.82,6.1,3.58-3.22,8.32-6.77S261.42,215.59,261.55,215.78Z" style="fill:#e0e0e0"></path><path d="M351.86,273.93c0,7-5.52,11-16.1,11H315V244.66h19.66c10.07,0,15.24,4.2,15.24,10.46A9.67,9.67,0,0,1,344.5,264,9.94,9.94,0,0,1,351.86,273.93Zm-27.65-22.25v9.48h9.25c4.55,0,7-1.61,7-4.77s-2.47-4.71-7-4.71ZM342.49,273c0-3.39-2.59-5-7.42-5H324.21v9.95h10.86C339.9,277.9,342.49,276.4,342.49,273Z" style="fill:#fff"></path><rect x="331.21" y="215.54" width="102.96" height="102.24" style="fill:#ebebeb"></rect><rect x="376.17" y="215.54" width="102.96" height="102.24" style="fill:#f5f5f5"></rect><path d="M437.5,280.46H417.25l-3.87,9.35H403l19.44-43.63h10L452,289.81H441.37Zm-3.18-7.67-6.91-16.7-6.92,16.7Z" style="fill:#fff"></path><path d="M375.71,284.38c.15.2-9.69,7.84-22,17.06S331.36,318,331.21,317.78s9.69-7.84,22-17.06S375.56,284.18,375.71,284.38Z" style="fill:#e0e0e0"></path><path d="M375.71,255c.15.2-9.69,7.83-22,17.05s-22.37,16.54-22.52,16.34,9.69-7.83,22-17.06S375.56,254.75,375.71,255Z" style="fill:#e0e0e0"></path><path d="M375.71,225.51c.15.2-9.69,7.84-22,17.06s-22.37,16.54-22.52,16.34,9.69-7.83,22-17.06S375.56,225.31,375.71,225.51Z" style="fill:#e0e0e0"></path><path d="M349.78,215.54c.15.2-3.89,3.48-9,7.33s-9.4,6.81-9.55,6.61,3.89-3.48,9-7.33S349.63,215.34,349.78,215.54Z" style="fill:#e0e0e0"></path><rect x="117.47" y="32.36" width="152.12" height="158.57" style="fill:#ebebeb"></rect><rect x="107.17" y="32.36" width="152.12" height="158.57" style="fill:#f5f5f5"></rect><rect x="127.61" y="53.68" width="111.22" height="115.94" style="fill:#fff"></rect><path d="M127.61,170.39a21.6,21.6,0,0,1-2.77,3.15c-1.79,1.86-4.29,4.39-7.09,7.15s-5.37,5.22-7.25,7a21.56,21.56,0,0,1-3.18,2.72,20,20,0,0,1,2.77-3.14c1.78-1.87,4.29-4.4,7.1-7.17s5.37-5.23,7.26-7A20.89,20.89,0,0,1,127.61,170.39Z" style="fill:#e0e0e0"></path><path d="M238.84,170.1a22.15,22.15,0,0,1,3.15,2.78c1.86,1.79,4.39,4.29,7.15,7.09s5.22,5.36,7,7.25a21,21,0,0,1,2.72,3.18,20.69,20.69,0,0,1-3.14-2.77c-1.87-1.79-4.4-4.29-7.17-7.1s-5.23-5.38-7-7.26A20.05,20.05,0,0,1,238.84,170.1Z" style="fill:#e0e0e0"></path><path d="M238.53,54a21.66,21.66,0,0,1,2.78-3.15c1.79-1.87,4.29-4.4,7.09-7.16s5.36-5.22,7.25-7A19.76,19.76,0,0,1,258.83,34a21.13,21.13,0,0,1-2.77,3.14c-1.79,1.86-4.29,4.4-7.1,7.16s-5.38,5.23-7.26,7A20.55,20.55,0,0,1,238.53,54Z" style="fill:#e0e0e0"></path><path d="M127.31,54.27a20.21,20.21,0,0,1-3.15-2.78c-1.86-1.78-4.4-4.29-7.15-7.08s-5.22-5.37-7-7.26A20.5,20.5,0,0,1,107.32,34a20.06,20.06,0,0,1,3.14,2.76c1.86,1.79,4.4,4.3,7.16,7.1s5.23,5.38,7,7.27A20.32,20.32,0,0,1,127.31,54.27Z" style="fill:#e0e0e0"></path><path d="M238.53,169.61s0-.19,0-.55,0-.92,0-1.62c0-1.44,0-3.53,0-6.25,0-5.48-.06-13.47-.1-23.62,0-20.3-.11-49.24-.18-83.89l.36.36-110.9.05h0l.41-.41c0,42.55,0,82.36-.06,115.93l-.35-.35,80.33.18,22.55.09,6,0,1.54,0,.53,0a4.45,4.45,0,0,1-.49,0l-1.5,0-5.9,0-22.47.09-80.55.18h-.36v-.36c0-33.57,0-73.38-.06-115.93v-.42h.43l110.9.05h.37v.37c-.08,34.74-.14,63.76-.19,84.12,0,10.12-.07,18.08-.1,23.54,0,2.69,0,4.76,0,6.18,0,.68,0,1.2,0,1.58A4.66,4.66,0,0,1,238.53,169.61Z" style="fill:#e0e0e0"></path><path d="M167.58,91.86c8.81,0,15.54,6,16.24,14.77a18.22,18.22,0,0,1-.38,4.88c-1.12,5.64.14,10.45,4.46,14.44,5.68,5.25,3.8,14.94-3.51,18.19-4.91,2.18-9.42,1-13.38-2.24a76.73,76.73,0,0,1-12.41-13.42,105.34,105.34,0,0,1-7-10.89c-5-8.83-.91-19.9,8.44-24.13A17.68,17.68,0,0,1,167.58,91.86Z" style="fill:#f5f5f5"></path><path d="M185.11,146.62c4.13-1.28,7.16-3.62,8.78-7.47,2-4.83,1.23-9.27-2.21-13.23-.15-.18-.19-.15,0,0a7.61,7.61,0,0,1-2.33-3.84s-.21-1.24-.39-2.47c-1.58-9,4.76-16.53,14-16.59a15.26,15.26,0,0,1,13.6,23.3A74.41,74.41,0,0,1,207,139.68a89.54,89.54,0,0,1-7.05,7c-4.14,3.62-9.47,3.94-13.52,1C186,147.42,185.65,147.07,185.11,146.62Z" style="fill:#f5f5f5"></path><path d="M179.09,78a7.91,7.91,0,0,1,5.67,2.9,5.46,5.46,0,0,1-.86,8.19,10.82,10.82,0,0,1-6.2,2.22c-3.21.08-5.62-2.14-6.12-5.56C170.9,81.11,173.66,77.93,179.09,78Z" style="fill:#f5f5f5"></path><path d="M192.92,90.56a5.68,5.68,0,0,1,5.56,3.35,7,7,0,0,1-1.61,7.07,4.81,4.81,0,0,1-3.77,1.22,9.07,9.07,0,0,1-5.28-2.07,4.77,4.77,0,0,1-.57-7.11A7.38,7.38,0,0,1,192.92,90.56Z" style="fill:#f5f5f5"></path><path d="M164.32,90.09A7.53,7.53,0,0,1,158,84.17a5.87,5.87,0,0,1,4.09-6.11,6.88,6.88,0,0,1,5.68.32,4.78,4.78,0,0,1,2.52,5.17A7.93,7.93,0,0,1,167,88.93,15.9,15.9,0,0,1,164.32,90.09Z" style="fill:#f5f5f5"></path><path d="M204.85,90.31c3.32,0,5.85,2.27,5.81,5.18s-2.91,5.62-5.68,5.49a4.08,4.08,0,0,1-1.77-.52,6.68,6.68,0,0,1-3.34-5.29C199.55,92.34,201.71,90.31,204.85,90.31Z" style="fill:#f5f5f5"></path><path d="M153.6,93.86c-3.29,0-6.14-2.36-6.12-5.07a5.66,5.66,0,0,1,5.68-5.3c2.87,0,4.77,2.18,4.81,5.47C158,91.93,156.29,93.86,153.6,93.86Z" style="fill:#f5f5f5"></path><path d="M145.54,101.18c-2.84,0-4.64-1.36-4.84-3.69a4.85,4.85,0,0,1,9.55-1.59C151.12,99,149.15,101.18,145.54,101.18Z" style="fill:#f5f5f5"></path><path d="M210.69,100.17c0-2.9,1.61-4.69,4.19-4.71a5,5,0,0,1,4.94,4.69c0,2.37-2.51,4.39-5.35,4.39C212.06,104.54,210.67,102.94,210.69,100.17Z" style="fill:#f5f5f5"></path><path d="M225.76,107.36c0,2.21-1.66,3.62-4.24,3.63s-4.33-1.39-4.34-3.4a4.55,4.55,0,0,1,4.25-4.57A4.39,4.39,0,0,1,225.76,107.36Z" style="fill:#f5f5f5"></path><path d="M141.85,109.81a3.34,3.34,0,0,1-3.42-3.54,4.22,4.22,0,0,1,4.24-4.36c2.18,0,4.25,1.91,4.24,3.85C146.89,107.86,144.46,109.82,141.85,109.81Z" style="fill:#f5f5f5"></path><path d="M227.67,115.43a3,3,0,0,1-3,3.13c-2.25,0-4.43-1.75-4.42-3.61a3.75,3.75,0,0,1,3.77-3.35A3.7,3.7,0,0,1,227.67,115.43Z" style="fill:#f5f5f5"></path><path d="M411.49,365.81c-9.57-20.14-43.86-73.14-93-58.91L99.09,431.26c8.57,16.18,83.42,16.26,114.3-6,9.78-7,20.77-16.26,32.32-12.82C254,414.91,259,423.09,264.15,430a97.8,97.8,0,0,0,124.69,27.74c11.81-6.34,22.55-15.47,28.33-27.56C426.79,410.1,421.05,386,411.49,365.81Z" style="fill:#fafafa"></path></g><g id="freepik--Floor--inject-83"><path d="M476.46,317.53c0,.14-101.88.26-227.52.26s-227.55-.12-227.55-.26,101.86-.26,227.55-.26S476.46,317.39,476.46,317.53Z" style="fill:#263238"></path></g><g id="freepik--shoe-1--inject-83"><path d="M236.85,240.62a28.63,28.63,0,0,1,3.47-17.39c1.6-2.84,4.27-5.67,7.53-5.39,2.38.2,4.27,2,6.31,3.25,3.23,2,7.41,2.83,9.45,6,1.37,2.13,1.42,4.86,1,7.36a22.85,22.85,0,0,1-9.32,14.8" style="fill:#FF725E"></path><g style="opacity:0.30000000000000004"><path d="M254.88,246.68A23.33,23.33,0,0,1,257.31,230c.51-.88,1.52-2.24,2.51-2.46a1.86,1.86,0,0,1,2.09.82,4.82,4.82,0,0,1,.57,2.85,17.73,17.73,0,0,1-2.4,9.08,39.14,39.14,0,0,1-5.2,6.36"></path></g><path d="M72,359.15c-9.25,6.78-11.34,21.72-9.95,32.78a44.83,44.83,0,0,0,15.73,28.6c9.32,7.71,21.35,11.27,33.21,13.59,13.1,2.56,26.81,3.81,39.67.25a102.26,102.26,0,0,0,33.18-16.08c15.42-11,29.34-22.7,44.76-33.74C243.61,373.77,279,349.11,271,328.49" style="fill:#e0e0e0"></path><path d="M271,328.49s.1.26.27.76a11.82,11.82,0,0,1,.62,2.29,19.32,19.32,0,0,1-.51,9.06,33.35,33.35,0,0,1-2.51,6.11,52,52,0,0,1-4.28,6.59,98.29,98.29,0,0,1-13.18,13.85c-5.31,4.71-11.46,9.47-18.21,14.35s-13.94,10.11-21.35,15.85-15.14,11.8-23.35,17.84A152.82,152.82,0,0,1,175.63,424a100.54,100.54,0,0,1-14.37,7.11c-2.51,1-5.06,1.9-7.62,2.68a72.36,72.36,0,0,1-7.73,2,72.32,72.32,0,0,1-15.54,1,111.6,111.6,0,0,1-14.94-1.59c-4.84-.82-9.56-1.79-14.09-3-9-2.44-17.4-6.14-23.84-11.54A44.87,44.87,0,0,1,61.85,392a52.6,52.6,0,0,1-.3-9,47.05,47.05,0,0,1,1.05-7.78c.24-1.19.59-2.29.89-3.35s.67-2.05,1.1-2.94a24,24,0,0,1,5-7.63,15.13,15.13,0,0,1,1.77-1.58l.64-.49s-.2.19-.61.53a16.78,16.78,0,0,0-1.73,1.62,24.4,24.4,0,0,0-4.84,7.62c-.42.9-.7,1.91-1.08,2.94s-.63,2.15-.86,3.33a46.86,46.86,0,0,0-1,7.75,52.1,52.1,0,0,0,.34,9,44.67,44.67,0,0,0,15.6,28.37c6.39,5.33,14.69,9,23.69,11.41,4.51,1.22,9.21,2.18,14,3a112.72,112.72,0,0,0,14.88,1.57,71.14,71.14,0,0,0,15.42-1.05,72.66,72.66,0,0,0,7.68-2c2.54-.78,5.08-1.66,7.58-2.66a98.44,98.44,0,0,0,14.29-7.08,152.81,152.81,0,0,0,12.83-8.73c8.2-6,15.93-12.11,23.36-17.81s14.59-11,21.39-15.82,12.91-9.59,18.21-14.28a98.16,98.16,0,0,0,13.2-13.75,51,51,0,0,0,4.29-6.53,33.51,33.51,0,0,0,2.54-6,19.71,19.71,0,0,0,.6-9,13.4,13.4,0,0,0-.57-2.29C271.06,328.76,271,328.49,271,328.49Z" style="fill:#263238"></path><path d="M164.05,238.54c-1.34.43-4,.43-6.7,2.94s-17.07,13.62-26.8,41.2c-1.55,4.39-11.75,20-21.14,28.69S84.27,335.11,83.27,345c0,0-29.17,28-12.07,44.11s54.93,27,98.87,7.72c42.67-18.71,51.62-28.95,75.33-47.42a235.13,235.13,0,0,0,23.13-20.33,6.22,6.22,0,0,0,1.91-5.6c-1.37-8.08-4.82-28.67-4.82-31,0-2.91.67-5.26-.33-10.62s-2.35-20.12-4.7-25.82-14.75-16.6-35.86-17.52S164.05,238.54,164.05,238.54Z" style="fill:#FF725E"></path><path d="M167.79,254.14S160,246.7,163.08,243c2.76-3.41,9.16-2.42,15-2.42s47.11-1.26,56.71,2.42,18.54,8.05,22,17-9.4,13.52-13.43,13.52a28.65,28.65,0,0,1-7.73-1.19s-3.49-4.48-12.87-10.15-36.66-15.93-43.93-15.87C169.72,246.32,167.79,254.14,167.79,254.14Z" style="opacity:0.30000000000000004"></path><g style="opacity:0.30000000000000004"><path d="M88.22,342.19c13.77-6.67,28.34-13.33,42.1-20a89.39,89.39,0,0,0,12.86-7.12,29.81,29.81,0,0,0,9.78-10.8l-4.75-2.85c-3.66,6.94-9.76,12.31-16.41,16.46s-13.91,7.22-21,10.63-16.92,8.27-22.61,13.67"></path></g><path d="M166.75,252.84s.29,0,.58.4a3.67,3.67,0,0,1,.52,2c.2,1.83-.75,4.36-1.85,7.44-2.28,6.21-5.86,14.9-10.25,25.15v0A54.45,54.45,0,0,1,140.3,312c-6.89,6.21-15,10-22.16,13.33-3.62,1.65-7.09,3.16-10.29,4.66s-6.13,3-8.73,4.5a58.34,58.34,0,0,0-11.44,8.39c-.6.58-1.13,1.1-1.57,1.58s-.82.87-1.1,1.21l-.67.75c-.15.17-.23.26-.24.25a31.73,31.73,0,0,1,3.44-3.94,56.28,56.28,0,0,1,11.4-8.55c2.6-1.53,5.53-3.05,8.73-4.58s6.66-3.05,10.27-4.7c7.2-3.31,15.2-7.14,22-13.29a54.06,54.06,0,0,0,9.63-11.51,53.45,53.45,0,0,0,5.73-12.45h0c4.43-10.22,8.06-18.89,10.42-25.05,1.14-3.09,2.11-5.55,2-7.35a3.75,3.75,0,0,0-.44-1.93A1.08,1.08,0,0,0,166.75,252.84Z" style="fill:#263238"></path><g style="opacity:0.30000000000000004"><path d="M193.8,271.38c5.42-2.49,10.62-2.82,31.26-.57-4.29-2.89-9.74-3.41-14.91-3.32s-10.41.68-15.48-.34c-9.44-1.9-17.28-9.17-26.84-10.37l-.37,1.15s8.56,8.25,14.69,10.42A74,74,0,0,0,193.8,271.38Z"></path></g><path d="M235.71,272.27a4.19,4.19,0,0,1-.48,0l-1.42-.17-5.43-.64c-4.72-.52-11.55-1.32-20-1.68-2.12-.07-4.34-.12-6.65,0a24.59,24.59,0,0,0-7,1.27,19.75,19.75,0,0,0-6.55,3.88,56.6,56.6,0,0,0-5.66,5.88c-7.69,8.2-14.52,18.54-21.05,29.71-3.23,5.62-6.23,11.19-8.78,16.73a34.71,34.71,0,0,0-3.71,16.92,44.73,44.73,0,0,0,1.2,8.06c.63,2.57,1.42,5,2.24,7.38s1.7,4.6,2.55,6.76,1.64,4.23,2.44,6.2a164.4,164.4,0,0,0,8.95,18c1.18,2.06,2.13,3.63,2.78,4.7l.74,1.22a4.32,4.32,0,0,1,.24.42l-.28-.39c-.19-.29-.45-.69-.79-1.19-.68-1-1.66-2.62-2.87-4.66A155.69,155.69,0,0,1,157,372.68c-.82-2-1.63-4-2.47-6.2s-1.73-4.41-2.58-6.76-1.64-4.82-2.29-7.41a45.6,45.6,0,0,1-1.23-8.15A35.08,35.08,0,0,1,152.18,327c2.55-5.57,5.55-11.15,8.79-16.78,6.54-11.18,13.42-21.57,21.14-29.76a57.43,57.43,0,0,1,5.72-5.92,20.23,20.23,0,0,1,6.71-3.94,24.86,24.86,0,0,1,7.14-1.26c2.33-.12,4.56-.06,6.68,0,8.5.41,15.33,1.27,20,1.85,2.35.3,4.18.56,5.42.74l1.4.22Z" style="fill:#263238"></path><path d="M261.88,260.41a9.67,9.67,0,0,1,.1,2.77,13.1,13.1,0,0,1-2.81,7,21,21,0,0,1-9,6.54,32.76,32.76,0,0,1-13.54,2A74.31,74.31,0,0,1,223,276.54a92.48,92.48,0,0,0-10.93-2.16,28.05,28.05,0,0,0-7.48.08c-1.74.29-2.68.62-2.69.56a3.29,3.29,0,0,1,.67-.25,17.69,17.69,0,0,1,2-.51,26.57,26.57,0,0,1,7.55-.24,84.23,84.23,0,0,1,11,2.05,75,75,0,0,0,13.46,2.11A32.65,32.65,0,0,0,250,276.24a20.87,20.87,0,0,0,8.92-6.32,13.17,13.17,0,0,0,2.9-6.76C262,261.4,261.82,260.42,261.88,260.41Z" style="fill:#263238"></path><path d="M193.49,382.49c.11-.1.65.31,1.21.91s.94,1.17.84,1.27-.65-.3-1.22-.91S193.38,382.58,193.49,382.49Z" style="fill:#fff"></path><path d="M189.9,377.68c.12-.08.6.41,1.07,1.08s.76,1.3.64,1.38-.59-.4-1.07-1.08S189.78,377.76,189.9,377.68Z" style="fill:#fff"></path><path d="M186.92,372.48c.13-.07.55.47.94,1.2s.61,1.37.48,1.44-.54-.46-.94-1.2S186.79,372.54,186.92,372.48Z" style="fill:#fff"></path><path d="M184.46,367c.13-.05.5.52.82,1.28s.48,1.42.34,1.48-.5-.51-.82-1.28S184.32,367.06,184.46,367Z" style="fill:#fff"></path><path d="M182.5,361.34c.13,0,.45.56.7,1.35s.35,1.46.21,1.5-.45-.55-.7-1.35S182.36,361.38,182.5,361.34Z" style="fill:#fff"></path><path d="M181.06,355.5c.14,0,.4.61.58,1.41s.21,1.49.07,1.53-.4-.6-.58-1.41S180.92,355.53,181.06,355.5Z" style="fill:#fff"></path><path d="M180.25,349.55c.14,0,.33.65.42,1.47s0,1.5-.1,1.52-.33-.64-.42-1.47S180.11,349.56,180.25,349.55Z" style="fill:#fff"></path><path d="M180.31,343.55c.14,0,.21.69.15,1.52s-.16,1.48-.31,1.48-.24-.68-.21-1.51S180.17,343.54,180.31,343.55Z" style="fill:#fff"></path><path d="M181.15,337.62c.14,0,.14.71,0,1.52s-.37,1.45-.52,1.43-.14-.7,0-1.52S181,337.59,181.15,337.62Z" style="fill:#fff"></path><path d="M182.7,331.82c.14.05.06.73-.18,1.52s-.54,1.39-.68,1.36-.06-.72.18-1.52S182.57,331.78,182.7,331.82Z" style="fill:#fff"></path><path d="M185,326.29c.13.06,0,.72-.39,1.47s-.73,1.31-.86,1.25,0-.71.39-1.47S184.88,326.22,185,326.29Z" style="fill:#fff"></path><path d="M188.11,321.16c.12.08-.15.71-.61,1.39s-.92,1.19-1,1.11.15-.7.61-1.39S188,321.07,188.11,321.16Z" style="fill:#fff"></path><path d="M192,316.58c.1.11-.27.68-.83,1.29s-1.09,1-1.2.92.26-.66.82-1.28S191.89,316.48,192,316.58Z" style="fill:#fff"></path><path d="M196.52,312.66c.08.11-.37.62-1,1.14s-1.24.85-1.33.74.35-.62,1-1.15S196.43,312.54,196.52,312.66Z" style="fill:#fff"></path><path d="M201.54,309.39c.07.12-.44.57-1.15,1s-1.34.67-1.41.55.43-.57,1.14-1S201.47,309.26,201.54,309.39Z" style="fill:#fff"></path><path d="M206.93,306.76c.06.13-.51.52-1.26.86s-1.41.51-1.47.38.5-.51,1.26-.86S206.88,306.63,206.93,306.76Z" style="fill:#fff"></path><path d="M212.58,304.74c0,.13-.56.46-1.34.71s-1.46.36-1.51.23.55-.46,1.34-.72S212.54,304.6,212.58,304.74Z" style="fill:#fff"></path><path d="M218.4,303.27c0,.14-.6.41-1.41.59s-1.48.22-1.52.08.6-.4,1.41-.59S218.37,303.13,218.4,303.27Z" style="fill:#fff"></path><path d="M224.33,302.34c0,.14-.64.35-1.46.46s-1.5.08-1.52-.06.63-.34,1.45-.46S224.31,302.2,224.33,302.34Z" style="fill:#fff"></path><path d="M230.31,301.87c0,.15-.65.31-1.48.36s-1.5,0-1.51-.17.65-.3,1.48-.35S230.3,301.73,230.31,301.87Z" style="fill:#fff"></path><path d="M236.3,301.58c0,.14-.65.29-1.48.33s-1.51,0-1.51-.18.65-.3,1.48-.34S236.29,301.43,236.3,301.58Z" style="fill:#fff"></path><path d="M242.28,301.09c0,.14-.64.32-1.46.4s-1.51,0-1.52-.11.64-.33,1.46-.41S242.26,300.94,242.28,301.09Z" style="fill:#fff"></path><path d="M248.18,300c0,.14-.59.39-1.41.56s-1.5.2-1.52.06.61-.4,1.41-.57S248.15,299.9,248.18,300Z" style="fill:#fff"></path><path d="M253.84,298.06c.06.13-.52.49-1.29.81s-1.44.47-1.49.33.53-.5,1.29-.81S253.77,297.93,253.84,298.06Z" style="fill:#fff"></path><path d="M258.92,294.89c.09.11-.39.59-1.08,1.08s-1.3.77-1.37.65.41-.61,1.07-1.08S258.83,294.78,258.92,294.89Z" style="fill:#fff"></path><path d="M263,290.54c.12.08-.17.71-.7,1.36s-1.1,1.06-1.2,1,.28-.66.79-1.29S262.91,290.46,263,290.54Z" style="fill:#fff"></path><path d="M265.49,285.1c.14,0,.11.73-.17,1.53s-.67,1.37-.8,1.31.05-.71.31-1.48S265.35,285.07,265.49,285.1Z" style="fill:#fff"></path><path d="M184.47,288.26c-.12-.09.22-.69.75-1.33s1-1.08,1.16-1-.23.69-.76,1.33S184.58,288.35,184.47,288.26Z" style="fill:#fff"></path><path d="M180.67,292.91c-.11-.09.22-.68.74-1.33s1-1.09,1.15-1-.22.69-.74,1.33S180.78,293,180.67,292.91Z" style="fill:#fff"></path><path d="M177,297.63c-.11-.09.21-.69.72-1.34s1-1.12,1.13-1-.21.69-.72,1.35S177.07,297.72,177,297.63Z" style="fill:#fff"></path><path d="M173.37,302.45c-.12-.09.18-.7.67-1.37s1-1.14,1.1-1.06-.19.7-.68,1.37S173.48,302.53,173.37,302.45Z" style="fill:#fff"></path><path d="M170,307.39c-.12-.08.16-.7.62-1.39s.93-1.18,1-1.1-.16.7-.62,1.39S170.09,307.47,170,307.39Z" style="fill:#fff"></path><path d="M166.83,312.5c-.13-.07.11-.71.54-1.42s.88-1.23,1-1.15-.13.7-.56,1.41S167,312.58,166.83,312.5Z" style="fill:#fff"></path><path d="M164,317.8c-.12-.07.08-.72.46-1.46s.79-1.28.91-1.21-.07.72-.45,1.45S164.13,317.86,164,317.8Z" style="fill:#fff"></path><path d="M161.56,323.28c-.13-.06,0-.72.35-1.49s.69-1.34.82-1.28,0,.73-.34,1.49S161.7,323.33,161.56,323.28Z" style="fill:#fff"></path><path d="M159.58,328.94c-.14,0,0-.72.22-1.51s.58-1.39.71-1.34,0,.72-.22,1.5S159.72,329,159.58,328.94Z" style="fill:#fff"></path><path d="M158.13,334.76c-.14,0-.1-.71.08-1.52s.44-1.44.58-1.41.1.72-.08,1.52S158.28,334.79,158.13,334.76Z" style="fill:#fff"></path><path d="M157.31,340.7c-.15,0-.21-.69-.1-1.52s.29-1.48.43-1.46.18.7.08,1.52S157.45,340.71,157.31,340.7Z" style="fill:#fff"></path><path d="M157.15,346.69c-.15,0-.26-.67-.26-1.5s.11-1.5.26-1.5.26.68.26,1.5S157.29,346.69,157.15,346.69Z" style="fill:#fff"></path><path d="M157.6,352.67c-.14,0-.33-.64-.41-1.47s0-1.5.11-1.51.33.64.41,1.46S157.74,352.65,157.6,352.67Z" style="fill:#fff"></path><path d="M158.59,358.59c-.14,0-.38-.61-.53-1.43s-.17-1.5,0-1.52.39.61.54,1.42S158.73,358.56,158.59,358.59Z" style="fill:#fff"></path><path d="M160.05,364.41c-.14,0-.42-.58-.64-1.38s-.28-1.49-.14-1.52.43.58.64,1.38S160.19,364.37,160.05,364.41Z" style="fill:#fff"></path><path d="M161.91,370.11c-.13.05-.48-.54-.74-1.33s-.37-1.46-.23-1.5.46.55.72,1.33S162.05,370.06,161.91,370.11Z" style="fill:#fff"></path><path d="M164.16,375.67c-.14.06-.51-.51-.83-1.28s-.48-1.43-.34-1.48.5.52.82,1.28S164.29,375.61,164.16,375.67Z" style="fill:#fff"></path><path d="M166.77,381.07c-.13.07-.53-.48-.91-1.22s-.57-1.4-.44-1.46.53.49.91,1.23S166.9,381,166.77,381.07Z" style="fill:#fff"></path><path d="M169.77,386.27c-.12.07-.57-.44-1-1.15s-.68-1.35-.55-1.42.57.44,1,1.15S169.89,386.19,169.77,386.27Z" style="fill:#fff"></path><path d="M173.29,391.12c-.11.1-.61-.36-1.12-1s-.83-1.27-.72-1.35.62.38,1.13,1S173.4,391,173.29,391.12Z" style="fill:#fff"></path><path d="M176.5,394.33c-.09.11-.43,0-.75-.31s-.51-.6-.41-.7.43,0,.75.31S176.59,394.22,176.5,394.33Z" style="fill:#fff"></path><path d="M198.62,381c.11-.09.64.34,1.19,1s.9,1.2.79,1.3-.63-.33-1.18-1S198.51,381.07,198.62,381Z" style="fill:#fff"></path><path d="M195.05,376.16c.12-.07.6.41,1.07,1.08s.76,1.3.65,1.38-.6-.39-1.07-1.08S194.93,376.24,195.05,376.16Z" style="fill:#fff"></path><path d="M192,371c.13-.06.55.47.95,1.19s.61,1.37.49,1.44-.55-.46-.95-1.19S191.9,371.05,192,371Z" style="fill:#fff"></path><path d="M189.62,365.49c.13-.05.49.53.8,1.29s.46,1.43.33,1.49-.5-.52-.81-1.29S189.48,365.54,189.62,365.49Z" style="fill:#fff"></path><path d="M187.86,359.75c.14,0,.43.59.65,1.38s.28,1.48.14,1.52-.42-.57-.65-1.38S187.72,359.78,187.86,359.75Z" style="fill:#fff"></path><path d="M186.82,353.85c.15,0,.36.63.47,1.44s.1,1.5,0,1.52-.36-.62-.47-1.44S186.68,353.86,186.82,353.85Z" style="fill:#fff"></path><path d="M186.57,347.86c.14,0,.26.68.27,1.5s-.1,1.49-.25,1.5-.26-.66-.27-1.5S186.42,347.86,186.57,347.86Z" style="fill:#fff"></path><path d="M187.15,341.9c.14,0,.16.7,0,1.52s-.32,1.46-.45,1.45-.17-.69-.06-1.52S187,341.87,187.15,341.9Z" style="fill:#fff"></path><path d="M188.6,336.08c.14.05.06.72-.17,1.51s-.52,1.41-.66,1.37-.07-.71.16-1.51S188.46,336,188.6,336.08Z" style="fill:#fff"></path><path d="M190.88,330.53c.13.07,0,.73-.38,1.48s-.73,1.31-.86,1.26,0-.72.38-1.48S190.75,330.47,190.88,330.53Z" style="fill:#fff"></path><path d="M193.93,325.37c.12.08-.15.71-.59,1.41s-.9,1.19-1,1.12.14-.7.59-1.41S193.81,325.29,193.93,325.37Z" style="fill:#fff"></path><path d="M197.71,320.71c.1.1-.25.69-.8,1.3s-1.07,1.05-1.18,1,.24-.67.79-1.3S197.6,320.61,197.71,320.71Z" style="fill:#fff"></path><path d="M202.15,316.7c.09.11-.35.63-1,1.15s-1.22.87-1.32.76.34-.62,1-1.16S202.07,316.58,202.15,316.7Z" style="fill:#fff"></path><path d="M207.2,313.47c.07.12-.45.56-1.16,1s-1.35.65-1.43.53.44-.56,1.17-1S207.14,313.34,207.2,313.47Z" style="fill:#fff"></path><path d="M212.74,311.16c0,.14-.55.48-1.32.76s-1.45.4-1.5.27.53-.47,1.32-.76S212.69,311,212.74,311.16Z" style="fill:#fff"></path><path d="M218.56,309.72c0,.14-.61.39-1.42.56s-1.48.2-1.52.06.6-.39,1.41-.56S218.53,309.57,218.56,309.72Z" style="fill:#fff"></path><path d="M224.5,308.89c0,.14-.64.34-1.46.43s-1.5.06-1.52-.08.63-.34,1.46-.43S224.48,308.75,224.5,308.89Z" style="fill:#fff"></path><path d="M230.48,308.41c0,.14-.66.31-1.48.36s-1.51,0-1.52-.15.65-.31,1.48-.36S230.47,308.26,230.48,308.41Z" style="fill:#fff"></path><path d="M236.46,308c0,.14-.65.31-1.48.36s-1.5,0-1.51-.15.65-.31,1.48-.37S236.45,307.87,236.46,308Z" style="fill:#fff"></path><path d="M242.43,307.43c0,.14-.63.33-1.46.43s-1.5.05-1.52-.1.65-.32,1.47-.42S242.41,307.28,242.43,307.43Z" style="fill:#fff"></path><path d="M248.33,306.35c0,.14-.59.39-1.41.56s-1.5.19-1.52,0,.61-.39,1.41-.56S248.3,306.21,248.33,306.35Z" style="fill:#fff"></path><path d="M254.07,304.6c.05.13-.54.46-1.33.73s-1.47.38-1.51.24.56-.47,1.34-.73S254,304.46,254.07,304.6Z" style="fill:#fff"></path><path d="M259.46,302c.07.12-.46.54-1.19.94s-1.38.63-1.45.5.48-.56,1.19-1S259.38,301.84,259.46,302Z" style="fill:#fff"></path><path d="M264.16,298.26c.1.1-.32.63-1,1.19s-1.2.92-1.29.81.34-.65.95-1.2S264.06,298.16,264.16,298.26Z" style="fill:#fff"></path><path d="M266.56,295.37c.12.08.12.29,0,.46s-.32.25-.43.16-.11-.29,0-.46S266.45,295.29,266.56,295.37Z" style="fill:#fff"></path><path d="M93.08,336c.13.06,0,.71-.31,1.48s-.53,1.38-.67,1.35-.1-.73.18-1.52S93,335.89,93.08,336Z" style="fill:#fff"></path><path d="M96.4,331c.1.09-.26.66-.77,1.3s-1,1.13-1.09,1.06.16-.72.68-1.38S96.29,330.88,96.4,331Z" style="fill:#fff"></path><path d="M100.89,327c.09.12-.37.62-1,1.13s-1.25.83-1.34.72.36-.62,1-1.13S100.81,326.91,100.89,327Z" style="fill:#fff"></path><path d="M106.05,324c.06.13-.47.55-1.19.94s-1.37.61-1.45.49.46-.55,1.2-.95S106,323.84,106.05,324Z" style="fill:#fff"></path><path d="M111.55,321.57c0,.14-.52.5-1.29.81s-1.43.47-1.48.33.52-.49,1.29-.81S111.5,321.44,111.55,321.57Z" style="fill:#fff"></path><path d="M117.15,319.42c0,.13-.53.48-1.31.78s-1.44.42-1.49.29.53-.48,1.31-.78S117.1,319.28,117.15,319.42Z" style="fill:#fff"></path><path d="M122.68,317.08c.06.13-.51.51-1.27.84s-1.42.51-1.48.38.52-.52,1.27-.85S122.62,317,122.68,317.08Z" style="fill:#fff"></path><path d="M127.91,314.16c.08.12-.41.61-1.13,1s-1.36.66-1.43.54.45-.57,1.16-1S127.83,314,127.91,314.16Z" style="fill:#fff"></path><path d="M132.63,310.46c.1.11-.34.63-1,1.17s-1.23.89-1.32.78.35-.64,1-1.17S132.53,310.36,132.63,310.46Z" style="fill:#fff"></path><path d="M136.78,306.14c.11.09-.25.67-.81,1.29s-1.09,1-1.2.93.26-.67.82-1.28S136.67,306,136.78,306.14Z" style="fill:#fff"></path><path d="M140.44,301.38c.11.08-.19.69-.68,1.36s-1,1.15-1.09,1.06.18-.7.67-1.36S140.32,301.3,140.44,301.38Z" style="fill:#fff"></path><path d="M143.68,296.33c.13.07-.13.71-.57,1.41s-.89,1.22-1,1.14.14-.71.57-1.41S143.56,296.26,143.68,296.33Z" style="fill:#fff"></path><path d="M146.6,291.09c.12.07-.09.72-.48,1.45s-.81,1.26-.94,1.19.09-.71.48-1.44S146.47,291,146.6,291.09Z" style="fill:#fff"></path><path d="M149.32,285.75c.13.06-.07.71-.44,1.45s-.78,1.29-.91,1.23.07-.72.44-1.46S149.19,285.68,149.32,285.75Z" style="fill:#fff"></path><path d="M152,280.36c.13.07-.06.72-.42,1.47s-.76,1.29-.89,1.23.06-.72.42-1.46S151.83,280.3,152,280.36Z" style="fill:#fff"></path><path d="M154.55,275c.13.07-.06.72-.41,1.47s-.75,1.3-.88,1.24.05-.72.41-1.46S154.42,274.89,154.55,275Z" style="fill:#fff"></path><path d="M157.1,269.52c.13.06,0,.72-.4,1.47s-.74,1.31-.87,1.25,0-.72.4-1.47S157,269.46,157.1,269.52Z" style="fill:#fff"></path><path d="M159.61,264.07c.13.06,0,.72-.39,1.47s-.73,1.32-.86,1.26,0-.72.39-1.47S159.48,264,159.61,264.07Z" style="fill:#fff"></path><path d="M162.08,258.6c.13.06,0,.72-.38,1.48s-.72,1.32-.85,1.26,0-.72.38-1.48S161.94,258.54,162.08,258.6Z" style="fill:#fff"></path><circle cx="167.79" cy="335.29" r="8.71" transform="translate(-190.61 445.36) rotate(-80.49)" style="fill:#e0e0e0"></circle><path d="M176.5,335.28c-.07,0,0-.77-.37-2.1a8.75,8.75,0,0,0-3.18-4.67,8.55,8.55,0,0,0-8-1.18,8.1,8.1,0,0,0-2.14,1.16,8,8,0,0,0-1.78,1.8,8.43,8.43,0,0,0,0,10,8,8,0,0,0,1.78,1.8,8.1,8.1,0,0,0,2.14,1.16,8.55,8.55,0,0,0,8-1.18,8.78,8.78,0,0,0,3.18-4.67c.35-1.33.3-2.11.37-2.11a3.53,3.53,0,0,1,0,.56,6.58,6.58,0,0,1-.2,1.6,8.8,8.8,0,0,1-6.88,6.61,9,9,0,0,1-4.7-.36,8.59,8.59,0,0,1-2.27-1.21,8.78,8.78,0,0,1-1.9-1.9,8.89,8.89,0,0,1,0-10.59,8.78,8.78,0,0,1,1.9-1.9,8.59,8.59,0,0,1,2.27-1.21,9,9,0,0,1,4.7-.36,8.8,8.8,0,0,1,6.88,6.61,6.58,6.58,0,0,1,.2,1.6A3.33,3.33,0,0,1,176.5,335.28Z" style="fill:#263238"></path><path d="M126.48,310.74a6.34,6.34,0,1,1-6.32-5.93A6.13,6.13,0,0,1,126.48,310.74Z" style="fill:#e0e0e0"></path><path d="M126.48,310.74s0-.55-.31-1.47a5.92,5.92,0,0,0-2.37-3.15,6.46,6.46,0,0,0-5.66-.74,6.07,6.07,0,0,0-2.82,1.94,5.37,5.37,0,0,0,0,6.84,6.09,6.09,0,0,0,2.82,1.95,6.5,6.5,0,0,0,5.66-.75,5.92,5.92,0,0,0,2.37-3.15c.28-.92.26-1.47.31-1.47s0,.14,0,.4a4.14,4.14,0,0,1-.14,1.12,5.88,5.88,0,0,1-2.36,3.4,6.8,6.8,0,0,1-6,.9,6.45,6.45,0,0,1-3.07-2.08,5.86,5.86,0,0,1,0-7.48,6.45,6.45,0,0,1,3.07-2.08,6.8,6.8,0,0,1,6,.9,5.91,5.91,0,0,1,2.36,3.4,4.16,4.16,0,0,1,.14,1.13Q126.51,310.74,126.48,310.74Z" style="fill:#263238"></path><g style="opacity:0.30000000000000004"><path d="M149.28,350.46c-3.3-12.36,3.64-26.07,10.42-37.21l-4.87-3C148.63,319.44,144,330,144,341.09c0,8,2.48,15.9,6.05,23.09s8.2,13.8,12.81,20.37C156.44,373.49,152.49,362.47,149.28,350.46Z"></path></g><g style="opacity:0.30000000000000004"><path d="M137,320.25c-4.83-2.86-9.84-5.79-15.41-6.45l.13,1.72A236.63,236.63,0,0,0,150,336.75,28,28,0,0,0,156.3,340a10.36,10.36,0,0,0,7,0C156.17,331.63,146.5,325.86,137,320.25Z"></path></g><path d="M118,313.48c-2.79-2.74-1.63-6,0-8.38a8.34,8.34,0,0,1,7.09-3.94,13.44,13.44,0,0,1,5.41,2c12.13,6.53,24.32,13.09,35.15,21.6a19.45,19.45,0,0,1,5.58,6c1.27,2.43,1.46,5.62-.22,7.79a7.24,7.24,0,0,1-6.19,2.46c-4.12-.24-7.62-2.93-10.92-5.41a225.6,225.6,0,0,0-35.85-22" style="fill:#f5f5f5"></path><path d="M188.77,320.51a6.62,6.62,0,1,1-6.62-6.62A6.62,6.62,0,0,1,188.77,320.51Z" style="fill:#e0e0e0"></path><path d="M188.77,320.51c-.06,0,0-.59-.31-1.59a6.51,6.51,0,0,0-2.42-3.53,6.42,6.42,0,0,0-6.06-.87,6.24,6.24,0,0,0-3,2.23,6.36,6.36,0,0,0,0,7.52,6.31,6.31,0,0,0,3,2.23,6.42,6.42,0,0,0,6.06-.88,6.49,6.49,0,0,0,2.42-3.52c.28-1,.25-1.6.31-1.59s0,.14,0,.42a4.84,4.84,0,0,1-.14,1.22,6.58,6.58,0,0,1-2.39,3.77,6.82,6.82,0,0,1-6.46,1,6.74,6.74,0,0,1-3.2-2.38,6.83,6.83,0,0,1,9.66-9.47,6.58,6.58,0,0,1,2.39,3.77,4.77,4.77,0,0,1,.14,1.21A1.21,1.21,0,0,1,188.77,320.51Z" style="fill:#263238"></path><circle cx="138.26" cy="295.09" r="6.62" style="fill:#e0e0e0"></circle><path d="M144.88,295.09c-.06,0,0-.59-.31-1.59a6.6,6.6,0,0,0-2.42-3.52,6.44,6.44,0,0,0-6.07-.88,6.33,6.33,0,0,0-3,2.23,6.4,6.4,0,0,0,9,8.88,6.6,6.6,0,0,0,2.42-3.52c.27-1,.25-1.6.31-1.6a2.43,2.43,0,0,1,0,.43,5.93,5.93,0,0,1-.14,1.21,6.58,6.58,0,0,1-2.4,3.77,6.79,6.79,0,0,1-9.65-1.34,6.8,6.8,0,0,1,0-8.13,6.79,6.79,0,0,1,9.65-1.34,6.59,6.59,0,0,1,2.4,3.76,6,6,0,0,1,.14,1.22A2.24,2.24,0,0,1,144.88,295.09Z" style="fill:#263238"></path><g style="opacity:0.30000000000000004"><path d="M175.81,318.44a12.43,12.43,0,0,0-3-2.68c-10.31-7.43-21.38-14.89-34-16.23l-1.89,2.14a133.08,133.08,0,0,0,24.19,16.41c4.78,2.53,10,4.81,15.4,4.15A4.18,4.18,0,0,0,175.81,318.44Z"></path></g><path d="M179.29,308.66c-3.31-3.25-7.51-5.4-11.58-7.62a223.77,223.77,0,0,1-19.19-11.75c-1.91-1.3-3.91-2.67-6.21-2.88s-4.92,1.25-5.1,3.55c-1.75,2.25-2.64,6.94-1,9.25a13.38,13.38,0,0,0,4.54,3.49q19.35,10.8,39,21a3.62,3.62,0,0,0,1.72.57c1.51,0,3.4-2.42,3.65-3.91C185.9,315.82,182.59,311.92,179.29,308.66Z" style="fill:#f5f5f5"></path><path d="M259.15,254.14a40.45,40.45,0,0,0-3.24-3.81,32.71,32.71,0,0,0-10-6.57,76.4,76.4,0,0,0-11.48-3.82c-1.5-.36-2.73-.61-3.59-.75a8,8,0,0,1-1.32-.26,5.75,5.75,0,0,1,1.35.06,31.59,31.59,0,0,1,3.64.6,63.72,63.72,0,0,1,11.6,3.69,30.92,30.92,0,0,1,10.09,6.79,19.77,19.77,0,0,1,2.31,2.89A5,5,0,0,1,259.15,254.14Z" style="fill:#263238"></path><g style="opacity:0.30000000000000004"><path d="M211.86,283.43a214.49,214.49,0,0,1-24.13,34.67l-4,3.88c6.09.56,12.07-2.5,16.36-6.86s7.15-9.89,9.76-15.42a34.75,34.75,0,0,0,2.95-8A12.6,12.6,0,0,0,211.86,283.43Z"></path></g><path d="M132.46,283c2.26,8.93,8.18,16.62,15.33,22.44s15.49,10,23.89,13.76c3.95,1.79,8.21,3.56,12.51,2.9,5-.77,8.85-4.61,12-8.5a92.85,92.85,0,0,0,14.07-23.53c1.16-2.8,2.18-6,1-8.8-1-2.32-3.28-3.8-5.5-5-8.56-4.68-18-7.63-26.78-11.78s-17.4-9.79-22.33-18.21" style="fill:#FF725E"></path><path d="M138,280.62c-.14,0-.35-.62-.47-1.45s-.09-1.51.06-1.52.35.64.46,1.45S138.17,280.59,138,280.62Z" style="fill:#fff"></path><path d="M139.77,286.35c-.13.06-.47-.53-.75-1.32s-.4-1.46-.27-1.5.48.55.76,1.32S139.91,286.3,139.77,286.35Z" style="fill:#fff"></path><path d="M142.56,291.66c-.12.08-.56-.44-1-1.17s-.65-1.36-.53-1.42.57.45,1,1.16S142.68,291.58,142.56,291.66Z" style="fill:#fff"></path><path d="M146.17,296.45c-.11.09-.62-.35-1.15-1s-.86-1.24-.74-1.33.63.36,1.14,1S146.28,296.35,146.17,296.45Z" style="fill:#fff"></path><path d="M150.42,300.69c-.09.1-.68-.25-1.29-.82s-1-1.13-.91-1.23.67.28,1.27.85S150.51,300.57,150.42,300.69Z" style="fill:#fff"></path><path d="M155.14,304.38c-.08.12-.69-.19-1.36-.68s-1.14-1-1.05-1.1.7.19,1.36.68S155.22,304.26,155.14,304.38Z" style="fill:#fff"></path><path d="M160.19,307.63c-.08.12-.71-.13-1.42-.57s-1.22-.88-1.14-1,.71.14,1.42.57S160.26,307.5,160.19,307.63Z" style="fill:#fff"></path><path d="M165.44,310.51c-.06.13-.71-.08-1.44-.47s-1.28-.81-1.21-.93.72.08,1.45.47S165.51,310.39,165.44,310.51Z" style="fill:#fff"></path><path d="M170.83,313.17c-.06.13-.72-.06-1.47-.42s-1.3-.76-1.23-.89.72.06,1.46.42S170.89,313,170.83,313.17Z" style="fill:#fff"></path><path d="M176.4,315.38c0,.14-.73.09-1.52-.19s-1.37-.65-1.32-.78.72,0,1.49.29S176.43,315.24,176.4,315.38Z" style="fill:#fff"></path><path d="M182.3,315.25c0,.12-.56.46-1.4.65s-1.54,0-1.54-.12.66-.25,1.45-.39S182.24,315.11,182.3,315.25Z" style="fill:#fff"></path><path d="M187,311.67c.11.09-.23.7-.84,1.29s-1.22.92-1.3.81.36-.61.94-1.18S186.93,311.58,187,311.67Z" style="fill:#fff"></path><path d="M190.38,306.7c.13.07-.11.71-.55,1.42s-.89,1.22-1,1.14.14-.71.57-1.41S190.26,306.63,190.38,306.7Z" style="fill:#fff"></path><path d="M193.3,301.45c.12.07-.1.72-.49,1.45s-.82,1.26-.95,1.19.1-.71.49-1.44S193.17,301.39,193.3,301.45Z" style="fill:#fff"></path><path d="M196,296.1c.13.07-.06.72-.43,1.46s-.77,1.3-.9,1.23.06-.72.43-1.46S195.88,296,196,296.1Z" style="fill:#fff"></path><path d="M198.51,290.65c.14.05,0,.72-.36,1.48s-.72,1.32-.85,1.26,0-.72.38-1.47S198.38,290.6,198.51,290.65Z" style="fill:#fff"></path><path d="M199.83,284.84c.14,0,.29.68.18,1.53s-.4,1.48-.54,1.44-.08-.71,0-1.51S199.68,284.85,199.83,284.84Z" style="fill:#fff"></path><path d="M197.35,279.55c.09-.1.69.27,1.21.95s.71,1.38.58,1.44-.51-.49-1-1.12S197.25,279.66,197.35,279.55Z" style="fill:#fff"></path><path d="M192.18,276.56c.06-.14.72,0,1.48.4s1.32.74,1.24.86-.73-.05-1.47-.39S192.13,276.69,192.18,276.56Z" style="fill:#fff"></path><path d="M186.53,274.55c.05-.14.72,0,1.5.25s1.38.6,1.33.74-.72,0-1.5-.25S186.48,274.68,186.53,274.55Z" style="fill:#fff"></path><path d="M180.91,272.43c.06-.13.73,0,1.5.3s1.35.65,1.3.79-.72,0-1.49-.3S180.86,272.57,180.91,272.43Z" style="fill:#fff"></path><path d="M175.4,270.05c.06-.13.73,0,1.48.38s1.32.72,1.26.85-.71,0-1.47-.37S175.34,270.18,175.4,270.05Z" style="fill:#fff"></path><path d="M170.07,267.32c.07-.13.71.09,1.44.48s1.26.81,1.2.94-.71-.09-1.45-.48S170,267.44,170.07,267.32Z" style="fill:#fff"></path><path d="M165,264.13c.08-.12.7.15,1.39.61s1.18.93,1.11,1-.71-.14-1.4-.6S164.9,264.24,165,264.13Z" style="fill:#fff"></path><path d="M160.27,260.42c.1-.11.69.23,1.32.76s1.07,1.05,1,1.16-.68-.23-1.32-.76S160.18,260.53,160.27,260.42Z" style="fill:#fff"></path><path d="M156.05,256.16c.11-.09.65.32,1.21.92s.93,1.18.83,1.28-.64-.31-1.21-.92S155.94,256.26,156.05,256.16Z" style="fill:#fff"></path><path d="M152.47,251.35c.12-.07.6.42,1.06,1.09s.75,1.3.64,1.39-.6-.4-1.07-1.09S152.35,251.43,152.47,251.35Z" style="fill:#fff"></path><path d="M150.54,247.87c.13-.06.33.08.45.32s.12.49,0,.56-.33-.08-.45-.32S150.41,247.93,150.54,247.87Z" style="fill:#fff"></path><path d="M156.45,246.25s.1.13.27.39l.78,1.18a39.38,39.38,0,0,0,3.39,4.21,45.07,45.07,0,0,0,6.43,5.62,67.55,67.55,0,0,0,9.74,5.78c3.77,1.85,8,3.6,12.63,5.44s9.52,3.8,14.49,6.36a38,38,0,0,1,3.69,2.11,9.83,9.83,0,0,1,3.08,3.14,7.36,7.36,0,0,1,.84,4.42,16.52,16.52,0,0,1-1.15,4.4,92.89,92.89,0,0,1-8.7,16.64,94,94,0,0,1-5.65,7.69,31.33,31.33,0,0,1-6.69,6.43,13.34,13.34,0,0,1-8.59,2.37,26,26,0,0,1-8.25-2.4c-5.09-2.27-9.88-4.55-14.2-7a76.74,76.74,0,0,1-11.42-7.73,47,47,0,0,1-12.47-15.45,37.12,37.12,0,0,1-2-5.06c-.17-.6-.28-1.06-.36-1.36a4.21,4.21,0,0,1-.1-.47s.06.15.15.45.24.77.41,1.35a40.77,40.77,0,0,0,2.06,5A47.36,47.36,0,0,0,147.37,305a76.84,76.84,0,0,0,11.4,7.64c4.31,2.41,9.1,4.67,14.18,6.92a25.4,25.4,0,0,0,8.09,2.34,12.72,12.72,0,0,0,8.27-2.3,30.53,30.53,0,0,0,6.58-6.33,93.84,93.84,0,0,0,14.27-24.18,16.46,16.46,0,0,0,1.13-4.27,6.85,6.85,0,0,0-.77-4.12,9.17,9.17,0,0,0-2.93-3,35.49,35.49,0,0,0-3.63-2.09c-4.93-2.56-9.85-4.52-14.43-6.39s-8.86-3.63-12.63-5.51a66.72,66.72,0,0,1-9.75-5.88,43.71,43.71,0,0,1-6.41-5.71,35.66,35.66,0,0,1-3.33-4.29l-.73-1.21C156.52,246.4,156.45,246.25,156.45,246.25Z" style="fill:#263238"></path><path d="M264.07,333.16l-.36.37-1.09,1c-.95.9-2.37,2.22-4.23,3.89-3.7,3.35-9.12,8.14-16,13.8s-15.3,12.21-25,19c-4.86,3.35-10,6.83-15.5,10.15A191.36,191.36,0,0,1,184.44,391c-6.15,2.95-12.29,5.53-18.34,7.74A173.39,173.39,0,0,1,148.33,404c-11.52,2.62-22.23,3.63-31.17,3.07l-3.26-.25-1.57-.12c-.52,0-1-.14-1.52-.21l-2.9-.42c-.94-.14-1.85-.26-2.72-.48l-4.83-1.09-4-1.23-1.69-.53-1.44-.58L91,401.27l-1.38-.57c-.31-.13-.46-.21-.46-.21a4.09,4.09,0,0,1,.48.16l1.4.52,2.27.87,1.45.56,1.69.5,4,1.18,4.82,1.05c.86.21,1.77.33,2.7.46l2.9.41c.5.06,1,.15,1.51.19l1.57.12,3.25.23c8.9.51,19.56-.54,31-3.17a176.78,176.78,0,0,0,17.71-5.33c6-2.21,12.15-4.78,18.29-7.72a198,198,0,0,0,17.4-9.55c5.5-3.31,10.63-6.78,15.49-10.12,9.68-6.76,18.08-13.27,25-18.89s12.38-10.36,16.13-13.66l4.29-3.82,1.12-1Z" style="fill:#263238"></path><path d="M137,274.94c.13.05,0,.72-.26,1.5s-.6,1.37-.74,1.33,0-.72.25-1.5S136.82,274.89,137,274.94Z" style="fill:#fff"></path><path d="M139.25,269.39c.13.06,0,.73-.36,1.48s-.7,1.33-.84,1.28,0-.72.36-1.48S139.12,269.33,139.25,269.39Z" style="fill:#fff"></path><path d="M141.92,264c.13.07-.08.72-.46,1.45s-.8,1.28-.92,1.22.07-.72.46-1.46S141.79,264,141.92,264Z" style="fill:#fff"></path><path d="M145,258.85c.12.08-.13.71-.56,1.42s-.88,1.21-1,1.14.12-.71.56-1.41S144.84,258.77,145,258.85Z" style="fill:#fff"></path><path d="M148.36,253.91c.11.08-.18.7-.66,1.37s-1,1.15-1.08,1.07.17-.7.66-1.37S148.24,253.82,148.36,253.91Z" style="fill:#fff"></path><path d="M151.75,249.61c.11.1-.15.6-.58,1.12s-.87.88-1,.8.14-.6.58-1.13S151.64,249.52,151.75,249.61Z" style="fill:#fff"></path><path d="M128.3,310.73a17.41,17.41,0,0,0-5.89-1.33,17.82,17.82,0,0,0-5.91,1.22,4.47,4.47,0,0,1,1.58-.92,11.13,11.13,0,0,1,4.34-.82,10.91,10.91,0,0,1,4.32.9A4.29,4.29,0,0,1,128.3,310.73Z" style="fill:#263238"></path><path d="M119.49,314.77c0,.05-.49-.09-1.12-.57a5.89,5.89,0,0,1-2.09-5.46c.14-.77.4-1.19.45-1.16s0,.48-.08,1.21a6.68,6.68,0,0,0,2,5.14C119.14,314.44,119.53,314.7,119.49,314.77Z" style="fill:#263238"></path><path d="M126.17,306.29a18.9,18.9,0,0,0-5.08,1.09,19.67,19.67,0,0,0-4.36,2.83s.27-.55,1-1.24a10.51,10.51,0,0,1,6.91-2.87A3.47,3.47,0,0,1,126.17,306.29Z" style="fill:#263238"></path><path d="M171.28,330.59a3.17,3.17,0,0,1,.91,1.53,6.47,6.47,0,0,1-2.63,7.65,3.1,3.1,0,0,1-1.65.64c0-.08.6-.31,1.44-1a6.91,6.91,0,0,0,2.38-3.23,7,7,0,0,0,.11-4C171.57,331.21,171.21,330.64,171.28,330.59Z" style="fill:#263238"></path><path d="M159.61,336.11a18,18,0,0,1,5.77.17A18.28,18.28,0,0,1,171,337.8c-.05.15-2.53-.55-5.65-1S159.61,336.26,159.61,336.11Z" style="fill:#263238"></path><path d="M162.3,329.66a30.64,30.64,0,0,1,9.13,7.93c-.11.1-2-1.85-4.52-4S162.21,329.78,162.3,329.66Z" style="fill:#263238"></path><path d="M235.71,272.27s-.15-.23-.49-.62a17.58,17.58,0,0,0-1.62-1.6,55.65,55.65,0,0,0-6.7-5c-1.48-1-3.1-2-4.92-3s-3.88-1.88-6-2.86c-4.27-1.94-9-3.93-14.07-5.92s-9.87-3.81-14.25-5.46a29.43,29.43,0,0,0-6.4-1.61,14,14,0,0,0-5.67.46,11.19,11.19,0,0,0-6.53,4.81,9.73,9.73,0,0,0-1.08,2.85,3.93,3.93,0,0,1,.09-.8c.05-.26.16-.57.26-.94a8.76,8.76,0,0,1,.55-1.21,11.31,11.31,0,0,1,6.6-5.07,14.15,14.15,0,0,1,5.82-.52,28.94,28.94,0,0,1,6.51,1.58c4.42,1.63,9.24,3.44,14.3,5.43s9.8,4,14.07,6c2.13,1,4.16,1.9,6,2.92s3.45,2.12,4.92,3.12a50.66,50.66,0,0,1,6.63,5.19A7.63,7.63,0,0,1,235.71,272.27Z" style="fill:#263238"></path><g style="opacity:0.30000000000000004"><path d="M263.42,269a119,119,0,0,0-8,24.48c-5.13,24.69-10,49.71-6,74.94-.16-1,6.08-6,7-6.86a88.91,88.91,0,0,0,7-7.68c3.77-4.78,8.69-12,7.95-18.41-.18-1.61-.51-3.22-.69-4.84l-1.26-10.83-3-26.14-2.64-22.82Z"></path></g><path d="M179.22,405.19c-.52-2.59-2.51-5.06-5.14-5.32-1.91-.19-3.72.76-5.42,1.65A127,127,0,0,1,125.12,415l-1.41,1.65c3.09,7.72,11.81,12.07,20.13,12.16s16.26-3.31,23.56-7.29a30.5,30.5,0,0,0,8.7-6.36C178.46,412.44,180,408.73,179.22,405.19Z" style="fill:#fff"></path><path d="M252.59,230.49c-.05-1.25-1.58-2-2.79-1.7a6.28,6.28,0,0,0-3,2.18c-.05-.9.21-1.8.17-2.7a2.11,2.11,0,0,0-1.41-2.09,1.79,1.79,0,0,0-1.71.77,4.08,4.08,0,0,0-.66,1.84,11.64,11.64,0,0,0,1.86,8.46l5.81-4.35C251.72,232.29,252.63,231.51,252.59,230.49Z" style="fill:#fff"></path></g><g id="freepik--shoe-2--inject-83"><path d="M325.08,210.47a4.22,4.22,0,0,0-2.51-1.13,66,66,0,0,0-16.41-1.12,3.13,3.13,0,0,0-2.12.67,3.18,3.18,0,0,0-.69,1.78,63.23,63.23,0,0,0-.07,19l20.07-2.94,2.16-12.69C325.72,212.84,325.89,211.43,325.08,210.47Z" style="fill:#FF725E"></path><path d="M263.5,349.48S260.16,385,279.57,417.4s64.79,30.32,82.79,27.45c28.85-4.59,43.45-16.85,50.28-32.83,5.14-12,1.87-37.4-2.49-48.83s-14.33-35.67-14.33-35.67Z" style="fill:#e0e0e0"></path><path d="M263.5,349.48s.2-.05.61-.12L266,349l7.19-1.23,27.18-4.58,95.45-16,.19,0,.07.18,7.89,19.62L408,357.21a93.34,93.34,0,0,1,3.86,10.52,108.91,108.91,0,0,1,3.53,22.76,80.61,80.61,0,0,1-.26,11.82,33.56,33.56,0,0,1-3.08,11.57,48.9,48.9,0,0,1-6.15,9.81,47.36,47.36,0,0,1-8.24,7.9,65.35,65.35,0,0,1-19.89,9.94,120,120,0,0,1-41.68,4.87c-13.39-.76-26.14-3.76-36.61-9.63a54.89,54.89,0,0,1-13.61-10.62c-.94-1-1.81-2.08-2.68-3.13s-1.65-2.14-2.35-3.28c-1.51-2.2-2.69-4.53-3.93-6.74a113.37,113.37,0,0,1-9.78-25.54,128.9,128.9,0,0,1-3.44-20.38,121.94,121.94,0,0,1-.46-13.05c0-1.5.09-2.64.14-3.4s.11-1.15.11-1.15l-.06,1.15c0,.77-.08,1.9-.09,3.4a130.23,130.23,0,0,0,.56,13,131.82,131.82,0,0,0,3.52,20.33,113.18,113.18,0,0,0,9.83,25.44c1.24,2.2,2.42,4.52,3.92,6.7.69,1.12,1.56,2.15,2.34,3.25s1.73,2.09,2.67,3.1a54.45,54.45,0,0,0,13.52,10.51c10.4,5.81,23.09,8.79,36.43,9.53A119.88,119.88,0,0,0,377.63,441a64.7,64.7,0,0,0,19.74-9.86,47.09,47.09,0,0,0,8.15-7.82,48,48,0,0,0,6.07-9.7,33,33,0,0,0,3-11.4,79.47,79.47,0,0,0,.26-11.74,108.3,108.3,0,0,0-3.5-22.65,93.37,93.37,0,0,0-3.84-10.47l-4.08-10.17q-4-10.05-7.87-19.62l.26.15L300.5,343.47l-27.24,4.45L266,349.09l-1.87.3Z" style="fill:#263238"></path><path d="M316.35,227c-12.47,1-46.86,5.86-50.21,29.71,0,0-4.6,37.66-4.18,52.72s-1.26,47.29,8,70.3,38.49,43.1,81.59,36.41,57.75-16.74,55.24-45.19-23.85-74.49-24.69-85.79-.42-28.45-4.6-36.4S349.79,224.33,316.35,227Z" style="fill:#FF725E"></path><path d="M268.22,250.17s0,.09-.14.23a2.46,2.46,0,0,0-.4.65,14.25,14.25,0,0,0-1,2.79,85.58,85.58,0,0,0-1.85,10.75c-1.11,9.16-2,21.9-2.28,36s-.07,26.85.35,36.07c.2,4.62.46,8.34.63,10.92q.13,1.89.21,3l0,.77a1,1,0,0,1,0,.27.84.84,0,0,1-.05-.27c0-.2-.06-.45-.09-.76-.08-.72-.18-1.71-.31-3-.23-2.58-.55-6.3-.8-10.92-.51-9.23-.84-22-.5-36.11a355.5,355.5,0,0,1,2.44-36,77.9,77.9,0,0,1,2-10.76,12.85,12.85,0,0,1,1.08-2.78,2.53,2.53,0,0,1,.45-.64A1.07,1.07,0,0,1,268.22,250.17Z" style="fill:#263238"></path><path d="M284,253.1s-13.58-.76-7.07-7.48,25-13.85,46-13.85,49.13,10.23,47.73,16.82c-1,4.51-8.92,8.61-8.92,8.61-2.08-4.85-10.52-13.76-38.24-13.76C292,243.44,284,253.1,284,253.1Z" style="opacity:0.30000000000000004"></path><g style="opacity:0.30000000000000004"><path d="M334.18,309.49a26.48,26.48,0,0,0-9.68-.23c2.46,17.55-3.36,35.88-14.66,49.53l-7.47,7.61C321.92,354.85,335,332.18,334.18,309.49Z"></path></g><path d="M279.61,395.08s0-.25-.05-.74a4.14,4.14,0,0,1,0-.91l.05-.59c0-.21.09-.43.14-.66a21.42,21.42,0,0,1,3.58-7.4c4.09-5.86,11.44-13.07,21.22-20.5l0,0c2.41-2.53,4.84-5.28,7.26-8.23a75.07,75.07,0,0,0,6.87-9.65,43.79,43.79,0,0,0,4.43-11.73,71.87,71.87,0,0,0,1.58-13.11c1.2-12.39-1.74-24-4.6-34.26A122.63,122.63,0,0,0,315,273c-1.93-4.32-3.88-8.4-6.9-11.1a29.22,29.22,0,0,0-9.24-5.6A47.07,47.07,0,0,0,291,254c-2.22-.43-4-.65-5.15-.77l-1.35-.13a3.39,3.39,0,0,1-.46,0,3.26,3.26,0,0,1,.46,0c.31,0,.76,0,1.36.07,1.19.1,2.94.28,5.18.69a45.1,45.1,0,0,1,8,2.21,29.67,29.67,0,0,1,9.38,5.61c.73.71,1.44,1.48,2.13,2.29l.94,1.33.47.67c.15.24.28.48.41.72.55,1,1.12,1.95,1.61,3l.77,1.56c.23.54.47,1.08.72,1.63a123.23,123.23,0,0,1,5.13,14.33,147.87,147.87,0,0,1,3.86,16.38,64,64,0,0,1,1,8.86c0,3-.07,6.07-.19,9.17a71.44,71.44,0,0,1-1.6,13.2,44,44,0,0,1-4.5,11.87,75.83,75.83,0,0,1-6.93,9.7c-2.44,2.95-4.89,5.7-7.32,8.23h0c-9.78,7.36-17.16,14.51-21.27,20.29a21.49,21.49,0,0,0-3.66,7.29A12.85,12.85,0,0,0,279.61,395.08Z" style="fill:#263238"></path><path d="M265.57,296.4c-.1.11-.69-.25-1.27-.86s-.92-1.22-.8-1.31.61.36,1.18.95S265.66,296.29,265.57,296.4Z" style="fill:#fff"></path><path d="M270.38,300c-.08.12-.7-.17-1.39-.64s-1.17-.95-1.08-1.06.7.16,1.38.63S270.46,299.85,270.38,300Z" style="fill:#fff"></path><path d="M275.37,303.31c-.09.11-.7-.18-1.38-.64s-1.18-.94-1.1-1.06.7.16,1.39.63S275.45,303.19,275.37,303.31Z" style="fill:#fff"></path><path d="M280,307.15c-.1.1-.68-.26-1.29-.81s-1-1.08-.94-1.19.67.25,1.29.81S280.07,307.05,280,307.15Z" style="fill:#fff"></path><path d="M284,311.61c-.12.08-.64-.36-1.17-1s-.86-1.22-.76-1.32.63.35,1.16,1S284.1,311.52,284,311.61Z" style="fill:#fff"></path><path d="M287.23,316.64c-.12.07-.56-.45-1-1.16s-.65-1.35-.53-1.42.56.44,1,1.16S287.36,316.58,287.23,316.64Z" style="fill:#fff"></path><path d="M289.52,322.19c-.14,0-.48-.56-.75-1.33s-.39-1.45-.26-1.5.47.54.75,1.32S289.65,322.15,289.52,322.19Z" style="fill:#fff"></path><path d="M290.65,328.07c-.14,0-.35-.64-.46-1.45s-.1-1.49,0-1.52.35.62.47,1.45S290.79,328.06,290.65,328.07Z" style="fill:#fff"></path><path d="M290.52,334.06c-.14,0-.21-.7-.14-1.51s.23-1.48.37-1.48.21.68.15,1.52S290.66,334.08,290.52,334.06Z" style="fill:#fff"></path><path d="M289.07,339.87c-.13-.05,0-.73.22-1.5s.53-1.4.67-1.36.1.72-.18,1.51S289.2,339.92,289.07,339.87Z" style="fill:#fff"></path><path d="M286.52,345.29c-.12-.07.08-.72.46-1.45s.79-1.27.93-1.21-.08.71-.46,1.45S286.65,345.36,286.52,345.29Z" style="fill:#fff"></path><path d="M283.33,350.37c-.12-.08.15-.71.61-1.4s.92-1.18,1-1.1-.15.7-.61,1.39S283.45,350.45,283.33,350.37Z" style="fill:#fff"></path><path d="M279.85,355.26c-.12-.08.18-.7.67-1.37s1-1.15,1.09-1.06-.18.69-.67,1.37S280,355.35,279.85,355.26Z" style="fill:#fff"></path><path d="M276.39,360.16c-.12-.08.17-.69.64-1.38s1-1.17,1.07-1.08-.17.7-.64,1.38S276.51,360.24,276.39,360.16Z" style="fill:#fff"></path><path d="M273.26,365.28c-.13-.07.11-.7.53-1.43s.85-1.24,1-1.16-.12.71-.53,1.42S273.39,365.35,273.26,365.28Z" style="fill:#fff"></path><path d="M270.81,370.75c-.14,0,0-.71.31-1.49s.67-1.35.8-1.29,0,.72-.31,1.49S270.94,370.8,270.81,370.75Z" style="fill:#fff"></path><path d="M269.51,376.59c-.14,0-.16-.69,0-1.51s.35-1.48.49-1.44.15.71,0,1.52S269.65,376.61,269.51,376.59Z" style="fill:#fff"></path><path d="M276,253.1a11.79,11.79,0,0,0,1.55.73,33.64,33.64,0,0,0,4.77,1.24c2.1.43,4.69.86,7.69,1.36a37.83,37.83,0,0,1,4.78,1c.83.23,1.68.48,2.55.78a13.73,13.73,0,0,1,2.62,1.13l0,0a12.51,12.51,0,0,1,3.89,3,33.15,33.15,0,0,1,3.2,4.18,74.19,74.19,0,0,1,5.48,10.07,115,115,0,0,1,8,24.57,63,63,0,0,1,1.35,14.52,85.28,85.28,0,0,1-1.62,13.48,81.09,81.09,0,0,1-7.58,21.65,73,73,0,0,1-8.57,12.89c-1.16,1.42-2.14,2.44-2.81,3.14-.31.33-.57.59-.75.79l-.28.26.24-.3.72-.82c.64-.72,1.59-1.77,2.72-3.2a76.37,76.37,0,0,0,8.41-12.92,82.88,82.88,0,0,0,7.43-21.58,85.64,85.64,0,0,0,1.58-13.41,62.7,62.7,0,0,0-1.35-14.4,115.69,115.69,0,0,0-7.94-24.47,73.84,73.84,0,0,0-5.4-10,32.8,32.8,0,0,0-3.14-4.14,12,12,0,0,0-3.73-3h0l0,0a13.61,13.61,0,0,0-2.5-1.09c-.86-.3-1.7-.56-2.53-.79a39,39,0,0,0-4.73-1.07c-3-.53-5.59-1-7.68-1.44a31.16,31.16,0,0,1-4.77-1.35A5.44,5.44,0,0,1,276,253.1Z" style="fill:#263238"></path><path d="M269.15,255.31c-.09.11-.7-.2-1.33-.77s-1-1.15-.9-1.24.64.31,1.25.85S269.23,255.19,269.15,255.31Z" style="fill:#fff"></path><path d="M274.37,258.22c-.05.13-.71-.05-1.47-.4s-1.32-.74-1.25-.87.73.06,1.47.4S274.42,258.08,274.37,258.22Z" style="fill:#fff"></path><path d="M280.15,259.8c0,.14-.7.11-1.52-.08s-1.44-.44-1.4-.58.72-.11,1.52.08S280.18,259.66,280.15,259.8Z" style="fill:#fff"></path><path d="M286.08,260.72c0,.14-.7.16-1.52,0s-1.47-.33-1.45-.47.7-.16,1.52-.05S286.1,260.58,286.08,260.72Z" style="fill:#fff"></path><path d="M292,261.62c0,.14-.71.15-1.52,0s-1.46-.36-1.44-.5.7-.15,1.52,0S292,261.48,292,261.62Z" style="fill:#fff"></path><path d="M297.83,263.07c-.05.14-.73.06-1.52-.17s-1.4-.53-1.36-.67.71-.06,1.51.17S297.88,262.94,297.83,263.07Z" style="fill:#fff"></path><path d="M303.13,265.85c-.11.07-.6-.26-1.35-.6s-1.28-.82-1.21-.95.71.09,1.44.48a3.53,3.53,0,0,1,.91.63C303.12,265.62,303.18,265.8,303.13,265.85Z" style="fill:#fff"></path><path d="M304.57,271.58c-.14,0-.44-.61-.53-1.45s0-1.5.11-1.52.32.65.41,1.46S304.71,271.53,304.57,271.58Z" style="fill:#fff"></path><path d="M307,277.08c-.13.05-.51-.52-.83-1.28s-.49-1.42-.36-1.48.51.51.84,1.28S307.09,277,307,277.08Z" style="fill:#fff"></path><path d="M309,282.73c-.14,0-.46-.56-.72-1.34s-.35-1.46-.22-1.51.46.55.72,1.34S309.1,282.69,309,282.73Z" style="fill:#fff"></path><path d="M310.48,288.53c-.14,0-.41-.59-.6-1.39s-.24-1.49-.1-1.52.41.58.6,1.39S310.62,288.5,310.48,288.53Z" style="fill:#fff"></path><path d="M311.57,294.43c-.14,0-.37-.62-.5-1.44s-.13-1.49,0-1.52.36.62.5,1.44S311.71,294.41,311.57,294.43Z" style="fill:#fff"></path><path d="M312.26,300.39c-.15,0-.33-.64-.41-1.47s0-1.5.11-1.51.32.64.41,1.46S312.4,300.38,312.26,300.39Z" style="fill:#fff"></path><path d="M312.6,306.38c-.14,0-.29-.66-.33-1.49s.05-1.5.2-1.51.29.66.32,1.49S312.74,306.38,312.6,306.38Z" style="fill:#fff"></path><path d="M312.64,312.38c-.14,0-.25-.68-.25-1.5s.12-1.5.27-1.5.25.67.25,1.5S312.79,312.38,312.64,312.38Z" style="fill:#fff"></path><path d="M312.44,318.37c-.15,0-.23-.68-.2-1.51s.19-1.49.33-1.49.23.68.19,1.51S312.58,318.38,312.44,318.37Z" style="fill:#fff"></path><path d="M312,324.36c-.14,0-.2-.69-.14-1.51s.23-1.49.37-1.48.21.69.15,1.52S312.17,324.38,312,324.36Z" style="fill:#fff"></path><path d="M311.42,330.33c-.14,0-.18-.69-.09-1.51s.27-1.48.42-1.47.2.7.1,1.52S311.56,330.35,311.42,330.33Z" style="fill:#fff"></path><path d="M310.32,336.23c-.14,0-.11-.71.06-1.52s.43-1.44.57-1.41.11.71-.06,1.52S310.46,336.27,310.32,336.23Z" style="fill:#fff"></path><path d="M308.52,342c-.14-.05,0-.72.25-1.5s.61-1.37.75-1.33,0,.72-.26,1.5S308.65,342,308.52,342Z" style="fill:#fff"></path><path d="M305.89,347.35c-.12-.08.09-.72.48-1.45s.81-1.26.94-1.2-.09.71-.48,1.45S306,347.42,305.89,347.35Z" style="fill:#fff"></path><path d="M302.47,352.27c-.11-.09.2-.7.69-1.36s1-1.12,1.11-1-.19.69-.69,1.35S302.58,352.36,302.47,352.27Z" style="fill:#fff"></path><path d="M298.45,356.71c-.1-.1.28-.67.84-1.26s1.12-1,1.23-.91-.28.66-.85,1.26S298.55,356.81,298.45,356.71Z" style="fill:#fff"></path><path d="M294.13,360.87c-.1-.1.31-.65.91-1.22s1.17-.94,1.27-.84-.31.65-.91,1.22S294.22,361,294.13,360.87Z" style="fill:#fff"></path><path d="M289.8,365c-.11-.1.29-.65.89-1.23s1.16-1,1.26-.86-.3.65-.9,1.23S289.9,365.12,289.8,365Z" style="fill:#fff"></path><path d="M285.71,369.41c-.11-.09.25-.67.81-1.29s1.09-1,1.19-.95-.25.68-.8,1.3S285.82,369.51,285.71,369.41Z" style="fill:#fff"></path><path d="M282.09,374.18c-.12-.08.17-.69.66-1.37s1-1.15,1.09-1.06-.19.7-.67,1.36S282.21,374.26,282.09,374.18Z" style="fill:#fff"></path><path d="M279,379.34c-.13-.06.09-.71.49-1.44s.83-1.26,1-1.18-.1.71-.5,1.43S279.16,379.41,279,379.34Z" style="fill:#fff"></path><path d="M276.59,384.81c-.13-.05,0-.71.33-1.48s.69-1.35.82-1.29,0,.72-.33,1.49S276.72,384.86,276.59,384.81Z" style="fill:#fff"></path><path d="M370.24,246.9a3.43,3.43,0,0,1,.27,1.61,6,6,0,0,1-.42,2,8.47,8.47,0,0,1-1.5,2.27,14,14,0,0,1-2.64,2.15c-1.07.65-2.27,1.26-3.48,2a30.16,30.16,0,0,0-3.68,2.76,34.38,34.38,0,0,0-3.57,3.72,30.63,30.63,0,0,0-3.17,4.7,20,20,0,0,0-2.15,5.71,43.54,43.54,0,0,0-.22,13.53c.6,4.76,1.67,9.7,2.76,14.81a128.81,128.81,0,0,0,4.15,15.63A99,99,0,0,0,363,332.58c1.23,2.3,2.54,4.52,3.91,6.62a55.8,55.8,0,0,0,4.35,5.92c3.18,3.6,6.46,6.79,9.53,9.75s6,5.68,8.69,8.14c5.35,4.92,9.75,8.84,12.78,11.55l3.5,3.12.9.81a2.6,2.6,0,0,1,.3.29,1.41,1.41,0,0,1-.33-.25l-.94-.78-3.56-3c-3.08-2.66-7.51-6.54-12.9-11.43-2.7-2.44-5.63-5.15-8.74-8.09s-6.38-6.14-9.59-9.75a55.74,55.74,0,0,1-4.4-6q-2.08-3.17-3.95-6.65a99.68,99.68,0,0,1-6.47-14.89A126.8,126.8,0,0,1,352,302.25c-1.1-5.12-2.15-10.07-2.75-14.86a44.09,44.09,0,0,1,.27-13.67,20.52,20.52,0,0,1,2.23-5.82,30.32,30.32,0,0,1,3.23-4.74,35.07,35.07,0,0,1,3.64-3.74,29.59,29.59,0,0,1,3.74-2.76c1.24-.77,2.45-1.36,3.5-2a13.41,13.41,0,0,0,2.63-2.08,8,8,0,0,0,1.5-2.19,5.85,5.85,0,0,0,.46-1.89,4.57,4.57,0,0,0-.07-1.21C370.28,247,370.23,246.9,370.24,246.9Z" style="fill:#263238"></path><g style="opacity:0.30000000000000004"><path d="M351.87,313.66,345,316.24c2.25,10.54,6.22,20.95,13.37,29a92.52,92.52,0,0,0,25.47,19.65C368.1,351.51,357.07,336.29,351.87,313.66Z"></path></g><path d="M398.12,371.12a37.07,37.07,0,0,1-5.27-1.72,53.4,53.4,0,0,1-13-7.62,68.83,68.83,0,0,1-15-16.62,109.88,109.88,0,0,1-11.57-24.85c-1.54-4.62-2.86-9.19-4-13.63a108.84,108.84,0,0,1-2.59-13,63.94,63.94,0,0,1-.51-12c.1-1.88.28-3.69.53-5.42a34.59,34.59,0,0,1,1.09-4.91,21.58,21.58,0,0,1,4-7.63,18.79,18.79,0,0,1,4.92-4.25,17.75,17.75,0,0,1,2.08-1.13,12.62,12.62,0,0,1,1.6-.69l1-.37.35-.11-.33.16-1,.42a13.5,13.5,0,0,0-1.57.73,19.9,19.9,0,0,0-2.05,1.16,18.83,18.83,0,0,0-4.8,4.27,21.29,21.29,0,0,0-3.85,7.55,36.17,36.17,0,0,0-1.05,4.86c-.23,1.72-.4,3.51-.49,5.38a64,64,0,0,0,.55,11.89,112.21,112.21,0,0,0,2.61,12.93c1.16,4.43,2.48,9,4,13.6a110,110,0,0,0,11.48,24.75,69,69,0,0,0,14.78,16.59,54.69,54.69,0,0,0,12.87,7.73c1.65.67,2.94,1.15,3.84,1.43l1,.34Z" style="fill:#263238"></path><path d="M400.31,343.32c.12-.08.59.42,1,1.17s.49,1.47.35,1.51-.43-.55-.81-1.27S400.18,343.39,400.31,343.32Z" style="fill:#fff"></path><path d="M396.84,338.43c.12-.09.61.39,1.1,1.05s.79,1.28.67,1.37-.61-.39-1.09-1.06S396.73,338.51,396.84,338.43Z" style="fill:#fff"></path><path d="M393.4,333.52c.12-.08.59.41,1.06,1.09s.74,1.3.63,1.39-.59-.41-1.06-1.1S393.28,333.6,393.4,333.52Z" style="fill:#fff"></path><path d="M390.32,328.37c.13-.06.56.46,1,1.18s.63,1.36.51,1.43-.55-.45-1-1.17S390.2,328.44,390.32,328.37Z" style="fill:#fff"></path><path d="M387.81,322.93c.14-.05.51.52.83,1.28s.48,1.42.35,1.48-.5-.51-.83-1.28S387.68,323,387.81,322.93Z" style="fill:#fff"></path><path d="M385.68,317.32c.14-.05.48.54.77,1.31s.42,1.45.28,1.5-.48-.54-.77-1.32S385.55,317.37,385.68,317.32Z" style="fill:#fff"></path><path d="M383.87,311.6c.14,0,.44.58.67,1.37s.31,1.47.17,1.51-.43-.57-.67-1.37S383.73,311.64,383.87,311.6Z" style="fill:#fff"></path><path d="M382.56,305.75c.14,0,.39.61.56,1.41s.19,1.49.05,1.53-.39-.61-.56-1.42S382.42,305.78,382.56,305.75Z" style="fill:#fff"></path><path d="M381.72,299.81c.14,0,.33.64.43,1.46s.05,1.5-.09,1.52-.34-.63-.43-1.46S381.58,299.82,381.72,299.81Z" style="fill:#fff"></path><path d="M381.59,293.81c.15,0,.26.69.25,1.51s-.14,1.49-.28,1.49-.25-.66-.25-1.5S381.45,293.81,381.59,293.81Z" style="fill:#fff"></path><path d="M382.33,287.86c.14,0,.15.72,0,1.53s-.35,1.45-.5,1.43-.15-.7,0-1.52S382.19,287.83,382.33,287.86Z" style="fill:#fff"></path><path d="M383.44,283.8c.14.05.17.34.06.66s-.29.54-.43.5-.17-.34-.06-.66S383.31,283.75,383.44,283.8Z" style="fill:#fff"></path><path d="M379.32,254.06c-.13-.06-.1-.4,0-.78s.29-.67.44-.64.19.39.05.8S379.45,254.12,379.32,254.06Z" style="fill:#fff"></path><path d="M375.29,258.49c-.08-.12.42-.58,1.06-1.1s1.16-.93,1.27-.83-.28.69-.94,1.23S375.37,258.61,375.29,258.49Z" style="fill:#fff"></path><path d="M369.88,261.2c-.06-.14.51-.52,1.27-.86s1.43-.52,1.49-.39-.5.52-1.27.86S369.94,261.33,369.88,261.2Z" style="fill:#fff"></path><path d="M364.6,264.13c-.09-.11.4-.6,1.1-1.09s1.38-.67,1.44-.54-.46.56-1.16,1S364.69,264.24,364.6,264.13Z" style="fill:#fff"></path><path d="M360.5,268.55c-.12-.08.16-.72.68-1.39s1.08-1.09,1.19-1-.27.67-.78,1.32S360.62,268.63,360.5,268.55Z" style="fill:#fff"></path><path d="M357.84,274c-.13-.05,0-.72.34-1.5s.69-1.37.81-1.3,0,.73-.33,1.5S358,274,357.84,274Z" style="fill:#fff"></path><path d="M356.53,279.88c-.14,0-.14-.7,0-1.53s.37-1.49.51-1.45.14.72,0,1.53S356.68,279.9,356.53,279.88Z" style="fill:#fff"></path><path d="M356.46,285.93c-.14,0-.28-.66-.32-1.5s.06-1.53.21-1.52.29.67.32,1.5S356.6,285.92,356.46,285.93Z" style="fill:#fff"></path><path d="M357.34,291.92c-.14,0-.38-.62-.53-1.44s-.15-1.52,0-1.54.38.63.53,1.45S357.48,291.89,357.34,291.92Z" style="fill:#fff"></path><path d="M358.85,297.78c-.14,0-.43-.58-.66-1.39s-.3-1.49-.16-1.52.44.58.66,1.38S359,297.74,358.85,297.78Z" style="fill:#fff"></path><path d="M360.71,303.55c-.13.05-.46-.56-.72-1.36s-.37-1.47-.23-1.52.46.57.72,1.36S360.85,303.5,360.71,303.55Z" style="fill:#fff"></path><path d="M362.73,309.26c-.14.05-.48-.55-.76-1.33s-.41-1.47-.27-1.52.47.55.76,1.34S362.86,309.21,362.73,309.26Z" style="fill:#fff"></path><path d="M364.91,314.91c-.13,0-.49-.54-.8-1.31s-.44-1.46-.31-1.51.49.54.8,1.32S365.05,314.86,364.91,314.91Z" style="fill:#fff"></path><path d="M367.21,320.51c-.13.05-.5-.53-.82-1.3s-.47-1.44-.34-1.5.5.53.82,1.3S367.34,320.45,367.21,320.51Z" style="fill:#fff"></path><path d="M369.55,326.09c-.14.06-.51-.52-.83-1.29s-.47-1.45-.34-1.5.5.52.82,1.3S369.68,326,369.55,326.09Z" style="fill:#fff"></path><path d="M371.84,331.7c-.14.05-.5-.53-.81-1.31s-.46-1.44-.33-1.5.5.53.81,1.31S372,331.65,371.84,331.7Z" style="fill:#fff"></path><path d="M374.29,337.24c-.12.07-.52-.49-.89-1.25s-.56-1.42-.43-1.48.54.5.9,1.25S374.42,337.17,374.29,337.24Z" style="fill:#fff"></path><path d="M377.56,342.33c-.11.08-.59-.4-1.08-1.09s-.77-1.32-.65-1.39.6.41,1.08,1.09S377.68,342.24,377.56,342.33Z" style="fill:#fff"></path><path d="M381.6,346.83c-.11.11-.66-.3-1.24-.9s-1-1.18-.87-1.27.66.31,1.24.9S381.69,346.73,381.6,346.83Z" style="fill:#fff"></path><path d="M386,351c-.1.1-.67-.28-1.27-.86s-1-1.13-.91-1.24.67.28,1.27.86S386.07,350.91,386,351Z" style="fill:#fff"></path><path d="M390.35,355.2c-.1.11-.67-.28-1.28-.85s-1-1.13-.91-1.24.67.28,1.27.86S390.45,355.1,390.35,355.2Z" style="fill:#fff"></path><path d="M394.72,359.39c-.1.11-.67-.28-1.27-.86s-1-1.13-.92-1.23.67.28,1.28.86S394.82,359.29,394.72,359.39Z" style="fill:#fff"></path><path d="M399.1,363.58c-.1.1-.67-.28-1.28-.86s-1-1.13-.91-1.23.67.28,1.27.85S399.2,363.48,399.1,363.58Z" style="fill:#fff"></path><path d="M403.47,367.77c-.1.1-.67-.28-1.27-.86s-1-1.13-.92-1.24.67.28,1.28.86S403.57,367.66,403.47,367.77Z" style="fill:#fff"></path><path d="M406.74,370.9c-.1.1-.42,0-.72-.33s-.46-.61-.36-.71.42,0,.72.33S406.84,370.79,406.74,370.9Z" style="fill:#fff"></path><g style="opacity:0.30000000000000004"><path d="M309,344.48l-1.83.57c5.21,4.1,16.71,6.31,26.23,6.23,11.12-.1,22.13-2.41,33.11-4.17a19.43,19.43,0,0,0,6.41-1.87,7.42,7.42,0,0,0,3.95-5.13A666.48,666.48,0,0,1,309,344.48Z"></path></g><g style="opacity:0.30000000000000004"><path d="M300.24,319.18l1.06-.07c-.33-.21-.67-.4-1-.63Z"></path></g><g style="opacity:0.30000000000000004"><path d="M367.58,317.24a2.91,2.91,0,0,0-1.77-.38q-32.28-.06-64.51,2.25a37.15,37.15,0,0,0,15.62,5.11,108.19,108.19,0,0,0,17.73.09l25.26-1.24c2.79-.14,5.94-.46,7.63-2.68C368.25,319.46,368.51,317.94,367.58,317.24Z"></path></g><path d="M405.5,388.16a1.73,1.73,0,0,1-.13.38l-.44,1.1c-.2.48-.41,1.1-.75,1.78s-.78,1.45-1.25,2.32-1.16,1.75-1.86,2.73l-1.22,1.44c-.22.25-.43.52-.66.76l-.75.72c-.52.48-1,1-1.6,1.49L395,402.35c-.67.44-1.35.91-2,1.38s-1.47.87-2.24,1.32A60.7,60.7,0,0,1,380,409.53c-4,1.29-8.28,2.39-12.82,3.51a138.94,138.94,0,0,1-30.13,4.32A86.11,86.11,0,0,1,307,413a67.11,67.11,0,0,1-21.55-12.27,57.68,57.68,0,0,1-6.72-6.81,54.08,54.08,0,0,1-4.2-5.87l-1.33-2.28c-.33-.67-.62-1.25-.85-1.73l-.52-1.07a1.65,1.65,0,0,1-.15-.37l.2.35.56,1,.9,1.7,1.36,2.24a53.84,53.84,0,0,0,11,12.51,67.11,67.11,0,0,0,21.47,12.09,86.09,86.09,0,0,0,29.89,4.28,140.13,140.13,0,0,0,30-4.26c4.54-1.12,8.86-2.19,12.81-3.46a60.57,60.57,0,0,0,10.65-4.39c.76-.44,1.53-.83,2.23-1.29l2-1.36,1.81-1.43c.6-.46,1.09-1,1.61-1.46.25-.25.5-.48.75-.71s.44-.5.65-.75l1.23-1.41c.71-1,1.35-1.86,1.89-2.68l1.28-2.29c.36-.67.58-1.28.8-1.75l.48-1.08A1.48,1.48,0,0,1,405.5,388.16Z" style="fill:#263238"></path><path d="M308.83,314.72a7.38,7.38,0,1,1-7.25-7.51A7.38,7.38,0,0,1,308.83,314.72Z" style="fill:#e0e0e0"></path><path d="M308.83,314.72c-.06,0,0-.66-.3-1.79a7.28,7.28,0,0,0-5.64-5.35,7.16,7.16,0,0,0-8.56,6.89,7.25,7.25,0,0,0,1.31,4.24,7.09,7.09,0,0,0,3.27,2.55,7.21,7.21,0,0,0,6.8-.87,7.32,7.32,0,0,0,2.76-3.9c.32-1.12.3-1.78.36-1.77a1.31,1.31,0,0,1,0,.47,5.36,5.36,0,0,1-.18,1.35,7.33,7.33,0,0,1-2.74,4.14,7.48,7.48,0,0,1-3.2,1.4,7.72,7.72,0,0,1-4-.37,7.61,7.61,0,0,1,.25-14.32,7.64,7.64,0,0,1,4-.24,7.53,7.53,0,0,1,3.15,1.51,7.27,7.27,0,0,1,2.6,4.23,5.93,5.93,0,0,1,.14,1.35A1.68,1.68,0,0,1,308.83,314.72Z" style="fill:#263238"></path><circle cx="372.9" cy="313.9" r="6.85" transform="translate(-113.32 348.17) rotate(-44.12)" style="fill:#e0e0e0"></circle><path d="M379.75,314c-.06,0,0-.61-.29-1.65a6.85,6.85,0,0,0-2.44-3.69,6.68,6.68,0,0,0-6.27-1,6.61,6.61,0,0,0-.2,12.4,6.62,6.62,0,0,0,6.29-.8,6.88,6.88,0,0,0,2.57-3.61c.29-1,.28-1.64.34-1.64a2.12,2.12,0,0,1,0,.44,5.53,5.53,0,0,1-.17,1.26,6.82,6.82,0,0,1-2.54,3.85,7,7,0,0,1-6.68.95,7,7,0,0,1-3.27-2.51,7,7,0,0,1,.14-8.4,7,7,0,0,1,3.35-2.4,7.11,7.11,0,0,1,3.72-.22,7,7,0,0,1,2.93,1.4,6.86,6.86,0,0,1,2.41,3.94,4.92,4.92,0,0,1,.12,1.25A1.67,1.67,0,0,1,379.75,314Z" style="fill:#263238"></path><path d="M298.37,316.81c1.31,1.77,4.77,3.69,6.93,4.19a28.27,28.27,0,0,0,6.63.49c13.54-.05,19-.51,32.51-.92,6.08-.18,17.28-.4,24.83-2,1.5-.31,4.42-1.19,5.57-2.18s.94-2.71.44-4.08c-1.53-4.2-4.71-5.63-8.94-7.2a36.5,36.5,0,0,0-14.92-1.51c-4.5.48-12.49,1.28-16.94,2.09-8.05,1.47-11.76.89-19.94.54a44.11,44.11,0,0,0-7.88,0,11.55,11.55,0,0,0-7,3.29,6.54,6.54,0,0,0-1.3,7.21" style="fill:#f5f5f5"></path><path d="M300.06,318.56c0,.05-.59-.06-1.26-.69a4.54,4.54,0,0,1-1.38-3.17,6.11,6.11,0,0,1,.95-3.31c.47-.75.89-1.12.93-1.07s-.24.49-.61,1.25a6.92,6.92,0,0,0-.75,3.12,4.8,4.8,0,0,0,1.12,2.93C299.6,318.25,300.09,318.48,300.06,318.56Z" style="fill:#263238"></path><path d="M312.57,310.53a13.3,13.3,0,0,1-2.2.41,42.69,42.69,0,0,0-5.2,1.29c-4,1.28-7.13,2.67-7.19,2.51a8.61,8.61,0,0,1,2-1.05,44.24,44.24,0,0,1,5.05-2,28.43,28.43,0,0,1,5.31-1.15A7.48,7.48,0,0,1,312.57,310.53Z" style="fill:#263238"></path><path d="M312,317.53a49.87,49.87,0,0,1-7.17-.66,48.75,48.75,0,0,1-7.11-1.18,51.65,51.65,0,0,1,7.17.66A50.43,50.43,0,0,1,312,317.53Z" style="fill:#263238"></path><g style="opacity:0.2"><path d="M314.6,311.16c-1.43-1.07-5.52-.36-7.22.18-3.79,1.22-5.69,2.2-9.47,3.42l.3,1.18q5.69.66,11.39,1.12a7.52,7.52,0,0,0,4.44-.56,3.57,3.57,0,0,0,1.72-2.54A3.07,3.07,0,0,0,314.6,311.16Z"></path></g><path d="M374.15,310c.05,0,.48.41.89,1.32a5.81,5.81,0,0,1,.33,3.83,4.69,4.69,0,0,1-2.43,3c-.92.44-1.57.36-1.57.3s.6-.14,1.4-.62a4.83,4.83,0,0,0,2.1-2.79,6.19,6.19,0,0,0-.18-3.56A13.62,13.62,0,0,1,374.15,310Z" style="fill:#263238"></path><g style="opacity:0.2"><path d="M375,313.2a42.21,42.21,0,0,0-8.18-1.57,4.3,4.3,0,0,0-1.52.06,1.38,1.38,0,0,0-.23,2.67,4,4,0,0,0,2,.31,37.69,37.69,0,0,0,7.75-1.22"></path></g><path d="M366.08,311.17a26.6,26.6,0,0,1,8.93,2.24,29.28,29.28,0,0,1-4.49-1A27.82,27.82,0,0,1,366.08,311.17Z" style="fill:#263238"></path><path d="M375,313.48a17.71,17.71,0,0,1-4.11,1.16,17.94,17.94,0,0,1-4.22.64,17.43,17.43,0,0,1,4.11-1.15A17.67,17.67,0,0,1,375,313.48Z" style="fill:#263238"></path><circle cx="303.75" cy="338.53" r="7.24" transform="translate(-140.8 434.66) rotate(-60.3)" style="fill:#e0e0e0"></circle><path d="M311,338.08c-.06,0-.07-.65-.44-1.72a7.2,7.2,0,0,0-2.88-3.69A7,7,0,0,0,298.4,343a6.88,6.88,0,0,0,3.39,2.23,7,7,0,0,0,3.69.1,7.16,7.16,0,0,0,5.28-5.5c.23-1.12.16-1.76.22-1.76a2.13,2.13,0,0,1,0,.46,5.48,5.48,0,0,1-.07,1.33,7.21,7.21,0,0,1-2.35,4.27,7.3,7.3,0,0,1-3,1.61,7.44,7.44,0,0,1-3.94-.05,7.3,7.3,0,0,1-3.64-2.37,7.45,7.45,0,0,1,6.65-12.19,7.29,7.29,0,0,1,3.2,1.22,7.21,7.21,0,0,1,2.88,3.94,6.25,6.25,0,0,1,.24,1.31A2.84,2.84,0,0,1,311,338.08Z" style="fill:#263238"></path><path d="M382.41,334a7.24,7.24,0,1,1-7.68-6.77A7.24,7.24,0,0,1,382.41,334Z" style="fill:#e0e0e0"></path><path d="M382.41,334c-.06,0-.07-.64-.43-1.72a7.25,7.25,0,0,0-2.89-3.69,7,7,0,0,0-6.7-.54,6.92,6.92,0,0,0-3.08,2.64,7,7,0,0,0,.53,8.24,6.91,6.91,0,0,0,3.38,2.24,7.17,7.17,0,0,0,3.7.09,6.92,6.92,0,0,0,2.88-1.48,7.22,7.22,0,0,0,2.4-4c.22-1.11.15-1.76.21-1.76a1.43,1.43,0,0,1,.06.46,5.56,5.56,0,0,1-.07,1.34,7.36,7.36,0,0,1-5.38,5.88,7.45,7.45,0,0,1-7.58-2.42,7.41,7.41,0,0,1-.55-8.84,7.27,7.27,0,0,1,3.31-2.81,7.46,7.46,0,0,1,3.9-.55,7.3,7.3,0,0,1,3.2,1.23,7.22,7.22,0,0,1,2.87,3.93,5.72,5.72,0,0,1,.24,1.32A1.35,1.35,0,0,1,382.41,334Z" style="fill:#263238"></path><path d="M301.51,336.08s5-6.1,12.1-6.19,52.41-1.09,55.78-1.52,7-.11,8.21,4.53-1.28,10.23-5.61,11-60.19,3.09-63.92,1.51S299.52,341.64,301.51,336.08Z" style="fill:#f5f5f5"></path><path d="M305.3,344.05a3.19,3.19,0,0,1-1.9-.55,5.38,5.38,0,0,1-1.28-8.41,3.1,3.1,0,0,1,1.65-1.1,15.82,15.82,0,0,0-1.37,1.34,5.28,5.28,0,0,0,1.2,7.85A17.24,17.24,0,0,0,305.3,344.05Z" style="fill:#263238"></path><path d="M314,333.6c0,.15-3,.85-6.5,2.35s-6.14,3.17-6.23,3a7.07,7.07,0,0,1,1.64-1.23,31.28,31.28,0,0,1,4.38-2.29,30.52,30.52,0,0,1,4.69-1.55A6.32,6.32,0,0,1,314,333.6Z" style="fill:#263238"></path><path d="M310.09,339.71a38.72,38.72,0,0,1-8.95.4,38.66,38.66,0,0,1,8.95-.4Z" style="fill:#263238"></path><path d="M377.37,337.79a21.73,21.73,0,0,0,0-3.84,21.49,21.49,0,0,0-1.19-3.66,5.81,5.81,0,0,1,1.71,3.58A5.7,5.7,0,0,1,377.37,337.79Z" style="fill:#263238"></path><g style="opacity:0.30000000000000004"><path d="M375,299.2l-90.43,4a108.77,108.77,0,0,0,93.8.72Z"></path></g><path d="M275.63,260.49a107.88,107.88,0,0,0,21.56,3.76,109.22,109.22,0,0,0,13,.18c20.71-1.18,60.64-4.39,65.62-1.9,2.94,1.47,1.08,27.6,3.88,39.34,1.73,7.25-90,14.94-102.59-4.27C273.21,291.65,275.63,260.49,275.63,260.49Z" style="fill:#FF725E"></path><path d="M287.39,267.29c0,.14-.7.12-1.52,0s-1.45-.41-1.42-.55.71-.12,1.52,0S287.42,267.15,287.39,267.29Z" style="fill:#fff"></path><path d="M293.32,268.24c0,.14-.7.16-1.52,0s-1.47-.34-1.45-.48.71-.16,1.52,0S293.34,268.09,293.32,268.24Z" style="fill:#fff"></path><path d="M299.28,268.9c0,.14-.69.19-1.52.11s-1.48-.27-1.46-.41.69-.19,1.52-.11S299.3,268.75,299.28,268.9Z" style="fill:#fff"></path><path d="M305.27,269.3c0,.14-.68.22-1.51.17s-1.5-.2-1.49-.34.69-.22,1.52-.18S305.28,269.16,305.27,269.3Z" style="fill:#fff"></path><path d="M311.27,269.47c0,.15-.68.25-1.51.23s-1.5-.14-1.49-.29.68-.24,1.5-.23S311.27,269.33,311.27,269.47Z" style="fill:#fff"></path><path d="M317.27,269.44c0,.14-.67.27-1.5.28s-1.5-.1-1.5-.24.67-.27,1.49-.28S317.26,269.3,317.27,269.44Z" style="fill:#fff"></path><path d="M323.27,269.23c0,.15-.66.29-1.49.33s-1.51-.06-1.51-.2.66-.29,1.49-.33S323.26,269.09,323.27,269.23Z" style="fill:#fff"></path><path d="M329.26,268.88c0,.14-.66.3-1.48.36s-1.51,0-1.52-.17.66-.3,1.48-.35S329.25,268.74,329.26,268.88Z" style="fill:#fff"></path><path d="M335.24,268.41c0,.14-.65.32-1.48.38s-1.5,0-1.51-.13.65-.32,1.47-.39S335.23,268.27,335.24,268.41Z" style="fill:#fff"></path><path d="M341.21,267.85c0,.15-.64.33-1.46.41s-1.51,0-1.52-.12.64-.32,1.47-.4S341.2,267.71,341.21,267.85Z" style="fill:#fff"></path><path d="M347.18,267.24c0,.14-.64.33-1.46.41s-1.51,0-1.52-.1.64-.33,1.47-.41S347.17,267.1,347.18,267.24Z" style="fill:#fff"></path><path d="M353.15,266.6c0,.15-.64.33-1.46.42s-1.51,0-1.52-.1.64-.33,1.46-.42S353.14,266.46,353.15,266.6Z" style="fill:#fff"></path><path d="M359.12,266c0,.14-.64.32-1.47.41s-1.5,0-1.51-.11.64-.33,1.46-.41S359.11,265.84,359.12,266Z" style="fill:#fff"></path><path d="M365.1,265.43c0,.15-.65.32-1.47.39s-1.51,0-1.52-.12.64-.32,1.47-.39S365.08,265.29,365.1,265.43Z" style="fill:#fff"></path><path d="M371,265.63c-.06.13-.68,0-1.47-.12s-1.47-.15-1.47-.3.67-.31,1.53-.22S371.11,265.5,371,265.63Z" style="fill:#fff"></path><path d="M372.91,270.94c-.15,0-.27-.67-.29-1.49s0-1.47.13-1.5.39.64.39,1.48S373.05,270.94,372.91,270.94Z" style="fill:#fff"></path><path d="M373,276.94c-.14,0-.27-.67-.28-1.5s.1-1.5.24-1.5.27.67.28,1.49S373.14,276.94,373,276.94Z" style="fill:#fff"></path><path d="M373.08,282.94c-.14,0-.27-.67-.28-1.5s.09-1.5.24-1.5.27.67.28,1.49S373.22,282.94,373.08,282.94Z" style="fill:#fff"></path><path d="M373.17,288.94c-.15,0-.27-.67-.28-1.5s.09-1.5.23-1.5.27.67.29,1.49S373.31,288.94,373.17,288.94Z" style="fill:#fff"></path><path d="M373.25,294.94c-.14,0-.27-.67-.28-1.5s.1-1.5.24-1.5.27.66.28,1.49S373.4,294.93,373.25,294.94Z" style="fill:#fff"></path><path d="M371.2,300.2c-.07-.13.47-.51.94-1.11a4.79,4.79,0,0,0,.54-.83c.14-.22.26-.36.33-.34s.07.19,0,.48a2.16,2.16,0,0,1-.47,1C372,300.13,371.25,300.33,371.2,300.2Z" style="fill:#fff"></path><path d="M365.4,301.65c0-.14.6-.39,1.41-.55s1.51-.17,1.53,0-.61.37-1.42.53S365.42,301.79,365.4,301.65Z" style="fill:#fff"></path><path d="M359.49,302.7c0-.14.62-.37,1.44-.51s1.49-.13,1.52,0-.62.37-1.44.51S359.51,302.84,359.49,302.7Z" style="fill:#fff"></path><path d="M353.55,303.54c0-.14.63-.34,1.45-.45s1.5-.09,1.52.06-.63.34-1.45.45S353.57,303.69,353.55,303.54Z" style="fill:#fff"></path><path d="M347.58,304.19c0-.15.65-.33,1.47-.41s1.5,0,1.52.11-.64.33-1.47.41S347.6,304.33,347.58,304.19Z" style="fill:#fff"></path><path d="M341.6,304.64c0-.14.66-.3,1.48-.36s1.5,0,1.52.16-.66.3-1.48.36S341.61,304.79,341.6,304.64Z" style="fill:#fff"></path><path d="M335.61,304.91c0-.14.66-.28,1.49-.31s1.5.06,1.51.2-.66.29-1.49.32S335.61,305.06,335.61,304.91Z" style="fill:#fff"></path><path d="M329.61,305c0-.14.67-.27,1.5-.27s1.5.11,1.5.25-.67.26-1.5.27S329.61,305.14,329.61,305Z" style="fill:#fff"></path><path d="M323.61,304.92c0-.14.68-.25,1.5-.23s1.5.14,1.5.28-.68.25-1.51.24S323.61,305.06,323.61,304.92Z" style="fill:#fff"></path><path d="M317.61,304.73c0-.14.68-.23,1.51-.2s1.49.17,1.49.31-.68.24-1.51.21S317.61,304.87,317.61,304.73Z" style="fill:#fff"></path><path d="M311.62,304.39c0-.15.69-.22,1.52-.17s1.48.22,1.48.36-.69.22-1.52.16S311.61,304.53,311.62,304.39Z" style="fill:#fff"></path><path d="M305.65,303.82c0-.14.69-.19,1.52-.1s1.47.27,1.46.42-.69.18-1.52.1S305.63,304,305.65,303.82Z" style="fill:#fff"></path><path d="M299.71,303c0-.14.7-.15,1.52,0s1.46.35,1.44.5-.7.15-1.52,0S299.68,303.11,299.71,303Z" style="fill:#fff"></path><path d="M293.84,301.72c0-.14.71-.1,1.52.08s1.43.46,1.4.6-.71.1-1.52-.09S293.8,301.86,293.84,301.72Z" style="fill:#fff"></path><path d="M288.1,300c0-.14.72,0,1.51.22s1.38.59,1.34.72-.72,0-1.51-.22S288.05,300.1,288.1,300Z" style="fill:#fff"></path><path d="M285.18,298.8c.06-.13.13-.23.17-.21s0,.13,0,.26-.13.23-.17.21S285.12,298.93,285.18,298.8Z" style="fill:#fff"></path><path d="M281.68,268.66c-.14,0-.11-.71.07-1.52s.45-1.44.59-1.41.1.72-.08,1.52S281.82,268.69,281.68,268.66Z" style="fill:#fff"></path><path d="M280.75,274.59c-.14,0-.17-.7-.06-1.53s.32-1.47.46-1.45.17.71.06,1.52S280.9,274.6,280.75,274.59Z" style="fill:#fff"></path><path d="M280.35,280.57c-.14,0-.23-.68-.19-1.51s.19-1.5.33-1.48.23.68.19,1.51S280.5,280.58,280.35,280.57Z" style="fill:#fff"></path><path d="M280.48,286.57c-.15,0-.29-.66-.33-1.49s.06-1.5.2-1.51.29.67.32,1.49S280.62,286.56,280.48,286.57Z" style="fill:#fff"></path><path d="M281.12,292.54c-.14,0-.34-.63-.45-1.46s-.08-1.5.06-1.52.35.64.46,1.45S281.26,292.51,281.12,292.54Z" style="fill:#fff"></path><path d="M282.23,298.17c-.14,0-.38-.54-.55-1.28s-.18-1.37,0-1.4.39.55.55,1.28S282.37,298.14,282.23,298.17Z" style="fill:#fff"></path><path d="M274.81,265.12c-.14,0-.11-.7.07-1.52s.45-1.44.59-1.4.1.71-.08,1.52S275,265.15,274.81,265.12Z" style="fill:#fff"></path><path d="M273.89,271.05c-.15,0-.17-.69-.06-1.52s.31-1.47.45-1.45.17.7.06,1.52S274,271.07,273.89,271.05Z" style="fill:#fff"></path><path d="M273.49,277c-.15,0-.23-.68-.2-1.51s.19-1.5.33-1.49.23.69.19,1.51S273.63,277,273.49,277Z" style="fill:#fff"></path><path d="M273.61,283c-.14,0-.29-.66-.32-1.49s0-1.51.19-1.51.29.66.33,1.49S273.75,283,273.61,283Z" style="fill:#fff"></path><path d="M274.25,289c-.14,0-.34-.63-.45-1.45s-.08-1.51.07-1.52.34.63.45,1.45S274.4,289,274.25,289Z" style="fill:#fff"></path><path d="M275.36,294.64c-.14,0-.38-.54-.55-1.29s-.18-1.37,0-1.39.39.54.55,1.28S275.5,294.6,275.36,294.64Z" style="fill:#fff"></path><path d="M277.13,297.6s.14.16.38.48a12.72,12.72,0,0,0,1.21,1.34,20.61,20.61,0,0,0,5.79,3.73c5.47,2.55,14.09,4.49,24.82,5.48a241.46,241.46,0,0,0,37.84.22,186.52,186.52,0,0,0,22.18-2.73,57.37,57.37,0,0,0,5.68-1.4,20,20,0,0,0,2.73-1.05,5.86,5.86,0,0,0,1.2-.77c.36-.3.61-.66.5-1A76.26,76.26,0,0,1,378,289.72c-.23-4.12-.33-8.19-.46-12.2a115.8,115.8,0,0,0-.75-11.78,7.93,7.93,0,0,0-.77-2.66c-.06-.09-.11-.19-.19-.22a.47.47,0,0,0-.24-.15c-.22-.06-.42-.15-.64-.21a12.57,12.57,0,0,0-1.39-.21,50.34,50.34,0,0,0-5.62-.19c-3.73,0-7.38.22-10.94.4-14.25.79-27.08,1.67-37.88,1.95s-19.56.09-25.56-.66a45.6,45.6,0,0,1-6.83-1.31,22.24,22.24,0,0,1-2.29-.8s.21.05.59.17.95.36,1.73.53a48.45,48.45,0,0,0,6.83,1.2,186.39,186.39,0,0,0,25.52.5c10.79-.33,23.61-1.24,37.86-2.06,3.57-.19,7.22-.37,11-.42a49.38,49.38,0,0,1,5.68.19c.48,0,1,.15,1.45.22l.72.24a1.28,1.28,0,0,1,.65.54,8,8,0,0,1,.85,2.87,112.64,112.64,0,0,1,.77,11.85c.13,4,.23,8.07.46,12.18A76.61,76.61,0,0,0,380,301.74a2.32,2.32,0,0,1,0,.47,2.25,2.25,0,0,1-.14.44,2.47,2.47,0,0,1-.55.64,6.33,6.33,0,0,1-1.31.84,20.86,20.86,0,0,1-2.81,1.08,56.3,56.3,0,0,1-5.73,1.41,183.81,183.81,0,0,1-22.25,2.7,236.51,236.51,0,0,1-37.91-.32c-10.75-1-19.38-3-24.87-5.66a20.24,20.24,0,0,1-5.78-3.85,9.74,9.74,0,0,1-1.17-1.38C277.24,297.78,277.13,297.6,277.13,297.6Z" style="fill:#263238"></path><g style="opacity:0.30000000000000004"><path d="M285.88,253.22l1.38.18a33.79,33.79,0,0,1,20.53,7.83,32.18,32.18,0,0,1,2.84,3.19l4-.31C308,255.47,296.61,251.39,285.88,253.22Z"></path></g><path d="M335.56,227.65a12.22,12.22,0,0,1-1.74-.15c-.56-.07-1.24-.13-2-.2s-1.7-.14-2.7-.2a109,109,0,0,0-15.67.19,91.9,91.9,0,0,0-15.45,2.6c-1,.24-1.84.51-2.61.74s-1.42.43-1.94.62a11.12,11.12,0,0,1-1.68.52,11.22,11.22,0,0,1,1.61-.71c.52-.22,1.16-.46,1.93-.7s1.62-.56,2.59-.82a81.2,81.2,0,0,1,15.5-2.77,94.7,94.7,0,0,1,15.74,0c1,.08,1.92.18,2.71.28s1.48.19,2,.29A10,10,0,0,1,335.56,227.65Z" style="fill:#263238"></path><path d="M345.78,234.77a2.5,2.5,0,0,1-.53-.08l-1.47-.33c-.64-.15-1.42-.33-2.34-.5s-1.94-.41-3.1-.59c-2.31-.41-5.07-.78-8.15-1.06s-6.49-.39-10.06-.33-7,.38-10,.76-5.82.9-8.1,1.42c-1.15.22-2.17.5-3.08.72s-1.68.42-2.31.6l-1.46.39a1.54,1.54,0,0,1-.52.1,3.1,3.1,0,0,1,.49-.2l1.43-.48c.63-.21,1.39-.45,2.3-.69s1.92-.55,3.07-.8c2.28-.56,5-1.09,8.11-1.53a95.09,95.09,0,0,1,10.09-.81,92.74,92.74,0,0,1,10.11.37c3.09.31,5.87.72,8.17,1.18,1.16.2,2.19.46,3.11.67s1.68.4,2.32.59l1.45.42A2,2,0,0,1,345.78,234.77Z" style="fill:#263238"></path><path d="M344.43,427.52a5.33,5.33,0,0,0-3.81-3.28,17.88,17.88,0,0,0-5.22-.33,84.72,84.72,0,0,1-55.94-19.63h0c5.41,10,10.67,19,19.8,25.8s20.76,10.67,32,8.93c4.79-.75,9.74-2.76,12.27-6.89A5.8,5.8,0,0,0,344.43,427.52Z" style="fill:#fff"></path><path d="M361.77,256.64a14.48,14.48,0,0,0-1.59-2.86,16,16,0,0,0-7.15-5.14c-3.52-1.38-8-2.17-12.94-3a121.55,121.55,0,0,0-16.23-1.6,94.67,94.67,0,0,0-16.26.91,80.32,80.32,0,0,0-13,3,73.84,73.84,0,0,0-8.38,3.24c-1,.44-1.71.8-2.21,1a4.07,4.07,0,0,1-.78.35,4.19,4.19,0,0,1,.73-.44c.49-.28,1.22-.67,2.17-1.13a66.23,66.23,0,0,1,8.35-3.41,78,78,0,0,1,13-3.1,92.68,92.68,0,0,1,16.36-1,117.24,117.24,0,0,1,16.29,1.65c4.94.9,9.43,1.72,13,3.17a15.69,15.69,0,0,1,7.17,5.37,10.07,10.07,0,0,1,1.18,2.16,5.12,5.12,0,0,1,.2.6C361.77,256.57,361.78,256.64,361.77,256.64Z" style="fill:#263238"></path><path d="M319.46,214.8c-.4-1.18-2.08-1.46-3.16-.83a6.26,6.26,0,0,0-2.22,2.94c-.3-.86-.31-1.79-.61-2.65a2.1,2.1,0,0,0-2-1.6,1.8,1.8,0,0,0-1.41,1.23,4,4,0,0,0-.11,2,11.67,11.67,0,0,0,4.2,7.58l4.33-5.83C319.14,216.77,319.78,215.77,319.46,214.8Z" style="fill:#fff"></path></g></svg>